<svg xmlns="http://www.w3.org/2000/svg" version="1.1" xmlns:xlink="http://www.w3.org/1999/xlink" xmlns:svgjs="http://svgjs.dev/svgjs" width="1500" height="1500" viewBox="0 0 1500 1500"><rect width="1500" height="1500" fill="#89939e"></rect><g transform="matrix(0.6666666666666666,0,0,0.6666666666666666,248.56016679155312,299.55161290322576)"><svg viewBox="0 0 276 248" data-background-color="#89939e" preserveAspectRatio="xMidYMid meet" height="1347" width="1500" xmlns="http://www.w3.org/2000/svg" xmlns:xlink="http://www.w3.org/1999/xlink"><g id="tight-bounds" transform="matrix(1,0,0,1,0.3973939655313359,0.4000000000000057)"><svg viewBox="0 0 275.2052120689373 247.2" height="247.2" width="275.2052120689373"><g><svg viewBox="0 0 395.52 355.2714109771603" height="247.2" width="275.2052120689373"><g transform="matrix(1,0,0,1,0,274.9461817681191)"><svg viewBox="0 0 395.52 80.32522920904121" height="80.32522920904121" width="395.52"><g id="textblocktransform"><svg viewBox="0 0 395.52 80.32522920904121" height="80.32522920904121" width="395.52" id="textblock"><g><svg viewBox="0 0 395.52 51.70338665195808" height="51.70338665195808" width="395.52"><g transform="matrix(1,0,0,1,0,0)"><svg width="395.52" viewBox="0.8 -35.1 271.93 35.550000000000004" height="51.70338665195808" data-palette-color="#000000"><path d="M10 0.45L10 0.45Q6.9 0.45 4.85-0.4 2.8-1.25 1.8-2.58 0.8-3.9 0.8-5.25L0.8-5.25Q0.8-7.15 2.5-8.63 4.2-10.1 7.1-10.1L7.1-10.1Q7.1-7.55 7.75-6.03 8.4-4.5 9.43-3.85 10.45-3.2 11.4-3.2L11.4-3.2Q12.55-3.2 13.33-3.88 14.1-4.55 14.1-5.55L14.1-5.55Q14.1-6.95 12.65-8 11.2-9.05 8.9-10.35L8.9-10.35Q7.75-11.05 6.4-11.98 5.05-12.9 4.1-14.23 3.15-15.55 3.15-17.4L3.15-17.4Q3.15-19.35 4.28-20.85 5.4-22.35 7.25-23.38 9.1-24.4 11.25-24.93 13.4-25.45 15.45-25.45L15.45-25.45Q19.3-25.45 21.25-23.9 23.2-22.35 23.2-20.6L23.2-20.6Q23.2-19.1 21.7-17.9 20.2-16.7 17.1-16.7L17.1-16.7Q17.15-19.25 16.05-20.43 14.95-21.6 13.7-21.6L13.7-21.6Q12.8-21.6 12.2-21.05 11.6-20.5 11.6-19.45L11.6-19.45Q11.6-18.25 12.38-17.38 13.15-16.5 14.33-15.83 15.5-15.15 16.75-14.55L16.75-14.55Q18.45-13.75 19.95-12.85 21.45-11.95 22.4-10.8 23.35-9.65 23.35-8L23.35-8Q23.35-5.75 21.53-3.83 19.7-1.9 16.65-0.73 13.6 0.45 10 0.45ZM37 0.35L37 0.35Q33.35 0.35 30.95-1.13 28.55-2.6 27.35-5.03 26.15-7.45 26.15-10.25L26.15-10.25Q26.15-12.9 27.17-15.58 28.2-18.25 30.17-20.45 32.15-22.65 34.97-24 37.8-25.35 41.35-25.35L41.35-25.35Q45.75-25.35 47.77-23.38 49.8-21.4 49.8-18.6L49.8-18.6Q49.8-16.2 48.52-14.18 47.25-12.15 45.15-10.93 43.05-9.7 40.55-9.7L40.55-9.7Q39.25-9.7 37.9-10.1 36.55-10.5 35.25-11.35L35.25-11.35Q35.5-8.25 37.05-6.85 38.6-5.45 40.75-5.45L40.75-5.45Q42.25-5.45 43.75-6.03 45.25-6.6 46.52-7.53 47.8-8.45 48.5-9.5L48.5-9.5 48.85-9.25Q48.85-6.65 47.77-4.83 46.7-3 44.95-1.85 43.2-0.7 41.12-0.18 39.05 0.35 37 0.35ZM38.15-13.15L38.15-13.15Q39.75-13.15 40.75-14.08 41.75-15 42.25-16.25 42.75-17.5 42.75-18.45L42.75-18.45Q42.75-19.6 42.1-20.38 41.45-21.15 40.3-21.15L40.3-21.15Q39.4-21.15 38.32-20.5 37.25-19.85 36.4-18.28 35.55-16.7 35.3-13.9L35.3-13.9Q36.9-13.15 38.15-13.15ZM63.05 0.35L63.05 0.35Q59.4 0.35 57-1.13 54.59-2.6 53.4-5.03 52.2-7.45 52.2-10.25L52.2-10.25Q52.2-12.9 53.22-15.58 54.25-18.25 56.22-20.45 58.2-22.65 61.02-24 63.84-25.35 67.4-25.35L67.4-25.35Q71.8-25.35 73.82-23.38 75.84-21.4 75.84-18.6L75.84-18.6Q75.84-16.2 74.57-14.18 73.3-12.15 71.2-10.93 69.09-9.7 66.59-9.7L66.59-9.7Q65.3-9.7 63.95-10.1 62.59-10.5 61.3-11.35L61.3-11.35Q61.55-8.25 63.09-6.85 64.65-5.45 66.8-5.45L66.8-5.45Q68.3-5.45 69.8-6.03 71.3-6.6 72.57-7.53 73.84-8.45 74.55-9.5L74.55-9.5 74.9-9.25Q74.9-6.65 73.82-4.83 72.75-3 71-1.85 69.25-0.7 67.17-0.18 65.09 0.35 63.05 0.35ZM64.2-13.15L64.2-13.15Q65.8-13.15 66.8-14.08 67.8-15 68.3-16.25 68.8-17.5 68.8-18.45L68.8-18.45Q68.8-19.6 68.15-20.38 67.5-21.15 66.34-21.15L66.34-21.15Q65.45-21.15 64.37-20.5 63.3-19.85 62.45-18.28 61.59-16.7 61.34-13.9L61.34-13.9Q62.95-13.15 64.2-13.15ZM85.49 0.2L85.49 0.2Q83.69 0.2 82.12-1.05 80.54-2.3 79.57-4.7 78.59-7.1 78.59-10.5L78.59-10.5Q78.59-14 79.59-16.75 80.59-19.5 82.22-21.43 83.84-23.35 85.77-24.35 87.69-25.35 89.54-25.35L89.54-25.35Q91.59-25.35 93.19-24.08 94.79-22.8 95.39-20.1L95.39-20.1Q95.84-22.6 96.17-24.88 96.49-27.15 96.49-28.9L96.49-28.9Q96.49-31.2 95.89-32.25L95.89-32.25 95.89-32.55Q97.04-33.85 98.42-34.48 99.79-35.1 101.04-35.1L101.04-35.1Q102.69-35.1 103.84-34.08 104.99-33.05 104.99-31.15L104.99-31.15Q104.99-30.1 104.64-28.05 104.29-26 103.79-23.38 103.29-20.75 102.77-17.98 102.24-15.2 101.89-12.68 101.54-10.15 101.54-8.3L101.54-8.3Q101.54-6.75 101.87-5.83 102.19-4.9 102.94-4.9L102.94-4.9Q103.49-4.9 104.07-5.28 104.64-5.65 104.84-6.15L104.84-6.15 105.19-5.9Q105.19-4.25 104.14-2.88 103.09-1.5 101.49-0.65 99.89 0.2 98.19 0.2L98.19 0.2Q96.34 0.2 95.27-0.83 94.19-1.85 93.74-3.45 93.29-5.05 93.24-6.75L93.24-6.75Q91.69-3.15 89.62-1.48 87.54 0.2 85.49 0.2ZM88.84-6.15L88.84-6.15Q90.14-6.15 91.74-8.5 93.34-10.85 94.54-15.35L94.54-15.35 94.84-16.9Q94.04-18.75 93.12-19.53 92.19-20.3 91.34-20.3L91.34-20.3Q90.09-20.3 88.99-18.93 87.89-17.55 87.22-15.43 86.54-13.3 86.54-10.95L86.54-10.95Q86.54-8.7 87.19-7.43 87.84-6.15 88.84-6.15ZM112.84 0.2L112.84 0.2Q111.04 0.2 109.61-1.28 108.19-2.75 108.19-5.35L108.19-5.35Q108.19-6.65 108.54-8.33 108.89-10 109.31-11.75 109.74-13.5 110.09-15.05 110.44-16.6 110.44-17.65L110.44-17.65Q110.44-18.5 110.04-19.03 109.64-19.55 108.99-19.55L108.99-19.55Q108.14-19.55 107.14-18.55L107.14-18.55 106.84-18.75Q106.79-19.55 107.19-20.65 107.59-21.75 108.49-22.78 109.39-23.8 110.84-24.5 112.29-25.2 114.29-25.2L114.29-25.2Q116.54-25.2 117.66-23.63 118.79-22.05 118.79-19.85L118.79-19.85Q118.79-19.6 118.79-19.33 118.79-19.05 118.74-18.8L118.74-18.8Q119.69-20.35 120.97-21.8 122.24-23.25 123.86-24.23 125.49-25.2 127.39-25.2L127.39-25.2Q129.84-25.2 130.79-23.63 131.74-22.05 131.74-20.05L131.74-20.05Q131.74-19.65 131.72-19.28 131.69-18.9 131.64-18.55L131.64-18.55Q132.69-20.1 133.97-21.63 135.24-23.15 136.89-24.18 138.54-25.2 140.69-25.2L140.69-25.2Q143.34-25.2 144.31-23.65 145.29-22.1 145.29-20L145.29-20Q145.29-18.15 144.84-15.78 144.39-13.4 143.94-11.1 143.49-8.8 143.49-7.2L143.49-7.2Q143.49-6.25 143.76-5.65 144.04-5.05 144.69-5.05L144.69-5.05Q145.24-5.05 145.72-5.38 146.19-5.7 146.39-6.15L146.39-6.15 146.79-6Q146.79-4.15 145.74-2.75 144.69-1.35 143.09-0.58 141.49 0.2 139.89 0.2L139.89 0.2Q137.94 0.2 136.47-1.1 134.99-2.4 134.99-5.4L134.99-5.4Q134.99-7.25 135.47-9.4 135.94-11.55 136.41-13.58 136.89-15.6 136.89-16.9L136.89-16.9Q136.89-18.75 135.59-18.75L135.59-18.75Q134.64-18.75 133.72-17.98 132.79-17.2 132.06-15.93 131.34-14.65 130.89-13.25 130.44-11.85 130.44-10.55L130.44-10.55Q130.44-9.35 130.72-7.93 130.99-6.5 130.99-5.2L130.99-5.2Q130.99-2.6 129.54-1.2 128.09 0.2 126.14 0.2L126.14 0.2Q124.34 0.2 122.91-1 121.49-2.2 121.49-4.6L121.49-4.6Q121.49-5.7 121.79-7.28 122.09-8.85 122.47-10.58 122.84-12.3 123.14-13.9 123.44-15.5 123.44-16.7L123.44-16.7Q123.44-17.65 123.16-18.2 122.89-18.75 122.09-18.75L122.09-18.75Q120.94-18.75 119.89-17.6 118.84-16.45 118.09-14.83 117.34-13.2 117.09-11.7L117.09-11.7Q117.04-11.35 117.02-11.15 116.99-10.95 116.99-10.95L116.99-10.95Q116.99-9.4 117.34-8.13 117.69-6.85 117.69-5.5L117.69-5.5Q117.69-3.05 116.22-1.43 114.74 0.2 112.84 0.2ZM159.94 0.35L159.94 0.35Q156.29 0.35 153.89-1.13 151.49-2.6 150.29-5.03 149.09-7.45 149.09-10.25L149.09-10.25Q149.09-12.9 150.11-15.58 151.14-18.25 153.11-20.45 155.09-22.65 157.91-24 160.74-25.35 164.29-25.35L164.29-25.35Q168.69-25.35 170.71-23.38 172.74-21.4 172.74-18.6L172.74-18.6Q172.74-16.2 171.46-14.18 170.19-12.15 168.09-10.93 165.99-9.7 163.49-9.7L163.49-9.7Q162.19-9.7 160.84-10.1 159.49-10.5 158.19-11.35L158.19-11.35Q158.44-8.25 159.99-6.85 161.54-5.45 163.69-5.45L163.69-5.45Q165.19-5.45 166.69-6.03 168.19-6.6 169.46-7.53 170.74-8.45 171.44-9.5L171.44-9.5 171.79-9.25Q171.79-6.65 170.71-4.83 169.64-3 167.89-1.85 166.14-0.7 164.06-0.18 161.99 0.35 159.94 0.35ZM161.09-13.15L161.09-13.15Q162.69-13.15 163.69-14.08 164.69-15 165.19-16.25 165.69-17.5 165.69-18.45L165.69-18.45Q165.69-19.6 165.04-20.38 164.39-21.15 163.24-21.15L163.24-21.15Q162.34-21.15 161.26-20.5 160.19-19.85 159.34-18.28 158.49-16.7 158.24-13.9L158.24-13.9Q159.84-13.15 161.09-13.15ZM181.09 0.15L181.09 0.15Q179.24 0.15 177.74-1.33 176.24-2.8 176.24-5.45L176.24-5.45Q176.24-6.75 176.59-8.4 176.94-10.05 177.36-11.75 177.79-13.45 178.14-14.95 178.49-16.45 178.49-17.4L178.49-17.4Q178.49-18.4 178.09-18.98 177.69-19.55 177.04-19.55L177.04-19.55Q176.19-19.55 175.19-18.55L175.19-18.55 174.89-18.75Q174.84-19.55 175.24-20.65 175.64-21.75 176.46-22.78 177.29-23.8 178.59-24.5 179.89-25.2 181.69-25.2L181.69-25.2Q184.34-25.2 185.61-23.68 186.89-22.15 186.89-19.95L186.89-19.95Q186.89-19.15 186.74-18.4L186.74-18.4Q187.79-19.95 189.34-21.53 190.89-23.1 192.76-24.15 194.64-25.2 196.64-25.2L196.64-25.2Q198.99-25.2 199.84-23.7 200.69-22.2 200.69-19.95L200.69-19.95Q200.69-17.85 200.24-15.45 199.79-13.05 199.34-10.83 198.89-8.6 198.89-7.1L198.89-7.1Q198.89-5.1 200.04-5.1L200.04-5.1Q200.64-5.1 201.09-5.48 201.54-5.85 201.69-6.2L201.69-6.2 202.04-6.05Q202.04-4.2 201.01-2.8 199.99-1.4 198.44-0.63 196.89 0.15 195.29 0.15L195.29 0.15Q193.34 0.15 191.84-1.2 190.34-2.55 190.34-5.6L190.34-5.6Q190.34-7.4 190.81-9.5 191.29-11.6 191.74-13.55 192.19-15.5 192.19-16.75L192.19-16.75Q192.19-17.5 191.91-17.93 191.64-18.35 190.94-18.35L190.94-18.35Q189.79-18.35 188.41-17.3 187.04-16.25 186.06-14.5 185.09-12.75 185.09-10.65L185.09-10.65Q185.09-9.3 185.41-8.05 185.74-6.8 185.74-5.35L185.74-5.35Q185.74-2.65 184.34-1.25 182.94 0.15 181.09 0.15ZM211.78 0.2L211.78 0.2Q210.18 0.2 208.76-0.53 207.33-1.25 206.46-2.8 205.58-4.35 205.58-6.75L205.58-6.75Q205.58-8.05 205.83-10.15 206.08-12.25 206.51-14.75 206.93-17.25 207.38-19.75L207.38-19.75Q206.38-19.7 205.46-19.55 204.53-19.4 203.63-19.2L203.63-19.2 203.53-19.55Q204.53-20.75 205.63-21.6 206.73-22.45 207.93-23L207.93-23Q208.58-26.3 209.03-28.73 209.48-31.15 209.48-31.6L209.48-31.6Q209.48-32.45 210.81-33 212.13-33.55 213.78-33.55L213.78-33.55Q215.23-33.55 216.51-33 217.78-32.45 218.23-31.15L218.23-31.15Q217.93-30.85 217.38-28.93 216.83-27 216.23-24.25L216.23-24.25Q217.18-24.2 218.18-24.15 219.18-24.1 220.23-24L220.23-24Q220.33-23.7 220.38-23.35 220.43-23 220.43-22.6L220.43-22.6Q220.43-21.85 220.21-20.98 219.98-20.1 219.68-19.4L219.68-19.4Q218.48-19.5 217.43-19.63 216.38-19.75 215.38-19.8L215.38-19.8Q214.98-17.65 214.66-15.5 214.33-13.35 214.16-11.6 213.98-9.85 213.98-8.85L213.98-8.85Q213.98-6.75 214.76-6.05 215.53-5.35 216.63-5.35L216.63-5.35Q217.63-5.35 218.43-5.75 219.23-6.15 219.58-6.7L219.58-6.7 220.08-6.55Q219.78-4.5 218.48-2.98 217.18-1.45 215.38-0.63 213.58 0.2 211.78 0.2ZM233.23 0.35L233.23 0.35Q229.48 0.35 227.03-1.15 224.58-2.65 223.41-5.13 222.23-7.6 222.23-10.4L222.23-10.4Q222.23-13.05 223.21-15.7 224.18-18.35 226.06-20.53 227.93-22.7 230.63-24.03 233.33-25.35 236.83-25.35L236.83-25.35Q240.58-25.35 243.01-23.83 245.43-22.3 246.61-19.8 247.78-17.3 247.78-14.45L247.78-14.45Q247.78-11.85 246.83-9.22 245.88-6.6 244.01-4.42 242.13-2.25 239.43-0.95 236.73 0.35 233.23 0.35ZM234.58-3.9L234.58-3.9Q235.93-3.9 236.83-5.3 237.73-6.7 238.18-8.88 238.63-11.05 238.63-13.3L238.63-13.3Q238.63-15.3 238.26-17.07 237.88-18.85 237.13-19.98 236.38-21.1 235.18-21.1L235.18-21.1Q233.88-21.1 232.96-19.7 232.03-18.3 231.58-16.15 231.13-14 231.13-11.7L231.13-11.7Q231.13-9.7 231.51-7.93 231.88-6.15 232.63-5.03 233.38-3.9 234.58-3.9ZM256.53 0.2L256.53 0.2Q254.73 0.2 253.33-1.28 251.93-2.75 251.93-5.45L251.93-5.45Q251.93-6.75 252.23-8.4 252.53-10.05 252.93-11.78 253.33-13.5 253.63-15.03 253.93-16.55 253.93-17.55L253.93-17.55Q253.93-18.6 253.55-19.23 253.18-19.85 252.58-19.85L252.58-19.85Q251.63-19.85 250.63-18.55L250.63-18.55 250.33-18.75Q250.28-19.55 250.68-20.65 251.08-21.75 251.93-22.78 252.78-23.8 254.1-24.5 255.43-25.2 257.23-25.2L257.23-25.2Q259.88-25.2 261.08-23.68 262.28-22.15 262.28-20L262.28-20Q262.28-19.65 262.25-19.28 262.23-18.9 262.18-18.55L262.18-18.55Q263.98-21.8 265.95-23.53 267.93-25.25 269.63-25.25L269.63-25.25Q271.23-25.25 271.98-24 272.73-22.75 272.73-21L272.73-21Q272.73-19.4 272.1-17.75 271.48-16.1 270.25-15.03 269.03-13.95 267.28-14L267.28-14 267.08-14.1Q267.03-15.4 266.23-16.15 265.43-16.9 264.43-16.9L264.43-16.9Q263.08-16.9 261.9-15.55 260.73-14.2 260.73-11.65L260.73-11.65Q260.73-10.1 261.08-8.3 261.43-6.5 261.43-5.25L261.43-5.25Q261.43-3.75 260.73-2.5 260.03-1.25 258.93-0.53 257.83 0.2 256.53 0.2Z" opacity="1" transform="matrix(1,0,0,1,0,0)" fill="#000000" class="wordmark-text-0" data-fill-palette-color="primary" id="text-0"></path></svg></g></svg></g><g transform="matrix(1,0,0,1,0,63.909315359205735)"><svg viewBox="0 0 395.52 16.415913849835476" height="16.415913849835476" width="395.52"><g transform="matrix(1,0,0,1,0,0)"><svg width="395.52" viewBox="2.61 -41.19 1305.75 54.2" height="16.415913849835476" data-palette-color="#c8c8c8"><path d="M13.6-35.16L22.56-35.16 21.04-22.9 15.11-22.9 13.6-35.16ZM2.61-35.16L11.55-35.16 10.06-22.9 4.1-22.9 2.61-35.16ZM54.34-4.49L54.34 0 29.1 0 29.1-35.16 54.34-35.16 54.34-30.66 38.79-30.66 38.79-19.8 50.8-19.8 50.8-15.33 38.79-15.33 38.79-4.49 54.34-4.49ZM103.19-16.46L103.19-16.46Q103.19-13.55 102.51-10.4 101.83-7.25 100.59-4.26 99.36-1.27 97.63 1.39 95.89 4.05 93.77 6.01L93.77 6.01 90.67 4.32Q91.38 3.05 91.96 1.46 92.55-0.12 93.04-1.88 93.53-3.64 93.89-5.49 94.26-7.35 94.51-9.19 94.77-11.04 94.89-12.77 95.01-14.5 95.01-16.02L95.01-16.02Q95.01-16.87 94.97-17.87 94.92-18.87 94.76-19.87 94.6-20.87 94.28-21.79 93.96-22.71 93.42-23.43 92.87-24.15 92.05-24.57 91.23-25 90.08-25L90.08-25Q88.96-25 88.17-24.4 87.37-23.8 86.81-22.85 86.25-21.9 85.92-20.7 85.59-19.51 85.42-18.3 85.25-17.09 85.19-15.99 85.13-14.89 85.13-14.14L85.13-14.14 85.13 0 76.9 0 76.9-13.13Q76.9-13.99 76.92-15.2 76.95-16.41 76.86-17.72 76.78-19.04 76.55-20.35 76.31-21.66 75.81-22.68 75.31-23.71 74.46-24.35 73.6-25 72.31-25L72.31-25Q71.21-25 70.47-24.39 69.72-23.78 69.22-22.81 68.72-21.85 68.44-20.64 68.16-19.43 68.02-18.23 67.89-17.02 67.87-15.93 67.84-14.84 67.84-14.14L67.84-14.14 67.84 0 59.57 0 59.57-28.2 62.74-28.2 65.77-21.63Q66.79-25.05 69-26.97 71.21-28.88 74.87-28.88L74.87-28.88Q78.17-28.88 80.34-27.51 82.51-26.15 83.76-23.07L83.76-23.07Q84.47-24.41 85.33-25.49 86.2-26.56 87.26-27.32 88.33-28.08 89.62-28.48 90.91-28.88 92.48-28.88L92.48-28.88Q95.36-28.88 97.39-27.94 99.43-27 100.73-25.34 102.02-23.68 102.61-21.4 103.19-19.12 103.19-16.46ZM138.66-14.16L138.66-14.16Q138.66-11.08 137.74-8.4 136.81-5.71 135.05-3.72 133.29-1.73 130.75-0.59 128.22 0.56 124.99 0.56L124.99 0.56Q122.53 0.56 120.46-0.4 118.4-1.37 116.94-3.37L116.94-3.37 116.94 13.01 108.68 13.01 108.68-28.2 111.86-28.2 115.52-22.07Q116.06-23.61 117-24.87 117.94-26.12 119.17-27.01 120.4-27.91 121.88-28.39 123.36-28.88 124.99-28.88L124.99-28.88Q128.22-28.88 130.75-27.73 133.29-26.59 135.05-24.6 136.81-22.61 137.74-19.92 138.66-17.24 138.66-14.16ZM130.29-14.16L130.29-14.16Q130.29-15.23 130.18-16.44 130.07-17.65 129.8-18.85 129.53-20.04 129.06-21.14 128.58-22.24 127.85-23.08 127.12-23.93 126.08-24.43 125.04-24.93 123.67-24.93L123.67-24.93Q122.26-24.93 121.22-24.44 120.18-23.95 119.44-23.11 118.69-22.27 118.22-21.18 117.74-20.09 117.47-18.9 117.2-17.7 117.09-16.48 116.98-15.26 116.98-14.16L116.98-14.16Q116.98-13.18 117.13-12 117.28-10.82 117.6-9.62 117.91-8.42 118.43-7.3 118.94-6.18 119.68-5.3 120.43-4.42 121.42-3.89 122.4-3.37 123.67-3.37L123.67-3.37Q125.07-3.37 126.09-3.87 127.12-4.37 127.85-5.21 128.58-6.05 129.06-7.15 129.53-8.25 129.8-9.45 130.07-10.64 130.18-11.87 130.29-13.09 130.29-14.16ZM173.74-14.16L173.74-14.16Q173.74-11.96 173.16-10.03 172.57-8.11 171.54-6.47 170.5-4.83 169.03-3.53 167.57-2.22 165.82-1.32 164.08-0.42 162.09 0.07 160.1 0.56 158 0.56L158 0.56Q155.9 0.56 153.92 0.07 151.94-0.42 150.2-1.32 148.45-2.22 146.99-3.53 145.52-4.83 144.48-6.47 143.45-8.11 142.86-10.05 142.28-11.99 142.28-14.16L142.28-14.16Q142.28-16.33 142.86-18.27 143.45-20.21 144.48-21.85 145.52-23.49 146.99-24.79 148.45-26.1 150.2-27 151.94-27.91 153.92-28.39 155.9-28.88 158-28.88L158-28.88Q160.1-28.88 162.09-28.39 164.08-27.91 165.82-27 167.57-26.1 169.03-24.79 170.5-23.49 171.54-21.85 172.57-20.21 173.16-18.27 173.74-16.33 173.74-14.16ZM165.35-14.16L165.35-14.16Q165.35-15.33 165.21-16.64 165.08-17.94 164.76-19.2 164.44-20.46 163.89-21.62 163.34-22.78 162.54-23.65 161.73-24.51 160.61-25.04 159.49-25.56 158-25.56L158-25.56Q156.58-25.56 155.48-25.02 154.38-24.49 153.57-23.6 152.75-22.71 152.2-21.53 151.65-20.36 151.31-19.1 150.97-17.85 150.82-16.56 150.67-15.28 150.67-14.16L150.67-14.16Q150.67-13.04 150.82-11.76 150.97-10.47 151.31-9.2 151.65-7.93 152.2-6.77 152.75-5.62 153.57-4.72 154.38-3.83 155.48-3.3 156.58-2.76 158-2.76L158-2.76Q159.46-2.76 160.59-3.28 161.71-3.81 162.53-4.69 163.34-5.57 163.88-6.71 164.42-7.86 164.75-9.13 165.08-10.4 165.21-11.69 165.35-12.99 165.35-14.16ZM195.89-17.14L191.22 0 183.8 0 176.09-28.2 184.34-28.2 189.17-8.42 193.2-28.2 200.62-28.2 205.55-7.89 210.31-28.2 216.03-28.2 207.48 0 200.06 0 195.89-17.14ZM226.6-13.38L226.6-13.38Q228.11-13.04 229.62-12.84 231.14-12.65 232.68-12.65L232.68-12.65Q234.29-12.65 235.67-12.95 237.05-13.26 238.06-13.98 239.07-14.7 239.66-15.89 240.24-17.09 240.24-18.87L240.24-18.87Q240.24-20.31 239.85-21.51 239.46-22.71 238.69-23.56 237.92-24.41 236.8-24.89 235.68-25.37 234.19-25.37L234.19-25.37Q232.8-25.37 231.69-24.85 230.58-24.34 229.73-23.47 228.89-22.61 228.29-21.46 227.69-20.31 227.3-19.07 226.91-17.82 226.74-16.55 226.57-15.28 226.57-14.16L226.57-14.16Q226.57-13.96 226.57-13.77 226.57-13.57 226.6-13.38ZM246.93-18.95L246.93-18.95Q246.93-17.21 246.37-15.86 245.81-14.5 244.85-13.48 243.88-12.45 242.61-11.74 241.34-11.04 239.9-10.58 238.46-10.13 236.94-9.94 235.41-9.74 233.97-9.74L233.97-9.74Q232.14-9.74 230.36-10 228.57-10.25 226.84-10.82L226.84-10.82Q227.11-9.2 227.69-7.75 228.28-6.3 229.26-5.21 230.23-4.13 231.66-3.49 233.09-2.86 235.04-2.86L235.04-2.86Q236.34-2.86 237.51-3.25 238.68-3.64 239.66-4.35 240.63-5.05 241.38-6.03 242.12-7.01 242.59-8.2L242.59-8.2 246.15-6.88Q245.35-4.96 243.94-3.55 242.54-2.15 240.77-1.23 239-0.32 237.01 0.12 235.02 0.56 233.07 0.56L233.07 0.56Q229.84 0.56 227.11-0.52 224.37-1.61 222.4-3.56 220.42-5.52 219.3-8.23 218.17-10.94 218.17-14.16L218.17-14.16Q218.17-17.38 219.3-20.09 220.42-22.8 222.4-24.76 224.37-26.71 227.11-27.8 229.84-28.88 233.07-28.88L233.07-28.88Q234.63-28.88 236.26-28.66 237.9-28.44 239.44-27.97 240.98-27.49 242.34-26.73 243.71-25.98 244.72-24.87 245.74-23.75 246.34-22.29 246.93-20.83 246.93-18.95ZM276.06-25.71L276.06-25.71 271.42-18.02Q271.13-18.99 270.66-20.21 270.2-21.44 269.51-22.5 268.83-23.56 267.88-24.28 266.93-25 265.68-25L265.68-25Q264.53-25 263.69-24.41 262.85-23.83 262.26-22.89 261.68-21.95 261.3-20.76 260.92-19.58 260.71-18.37 260.5-17.16 260.43-16.05 260.36-14.94 260.36-14.14L260.36-14.14 260.36 0 252.08 0 252.08-28.2 255.26-28.2 258.6-21.63Q259.28-23.22 260.16-24.55 261.04-25.88 262.19-26.84 263.34-27.81 264.79-28.34 266.24-28.88 268.07-28.88L268.07-28.88Q269.03-28.88 270.2-28.72 271.37-28.56 272.49-28.19 273.62-27.81 274.57-27.2 275.52-26.59 276.06-25.71ZM288.16-35.01L288.16-35.01Q288.16-34.08 287.81-33.25 287.46-32.42 286.85-31.81 286.23-31.2 285.4-30.85 284.57-30.49 283.65-30.49L283.65-30.49Q282.72-30.49 281.9-30.85 281.08-31.2 280.47-31.81 279.86-32.42 279.51-33.25 279.15-34.08 279.15-35.01L279.15-35.01Q279.15-35.94 279.51-36.76 279.86-37.57 280.47-38.18 281.08-38.79 281.9-39.15 282.72-39.5 283.65-39.5L283.65-39.5Q284.57-39.5 285.4-39.15 286.23-38.79 286.85-38.18 287.46-37.57 287.81-36.76 288.16-35.94 288.16-35.01ZM287.8-28.17L287.8 0 279.52 0 279.52-28.17 287.8-28.17ZM323.54-16.16L323.54-16.16Q323.54-13.31 322.84-10.21 322.15-7.1 320.9-4.13 319.66-1.15 317.92 1.48 316.19 4.1 314.11 6.01L314.11 6.01 311.01 4.32Q311.67 3.1 312.26 1.59 312.84 0.07 313.32-1.62 313.8-3.32 314.17-5.13 314.55-6.93 314.81-8.7 315.07-10.47 315.2-12.15 315.33-13.82 315.33-15.26L315.33-15.26Q315.33-16.21 315.26-17.3 315.19-18.38 314.96-19.47 314.72-20.56 314.33-21.56 313.94-22.56 313.3-23.32 312.65-24.07 311.73-24.54 310.82-25 309.57-25L309.57-25Q308.35-25 307.4-24.45 306.45-23.9 305.71-23.01 304.98-22.12 304.46-20.97 303.93-19.82 303.6-18.62 303.27-17.41 303.13-16.24 302.98-15.06 302.98-14.14L302.98-14.14 302.98 0 294.7 0 294.7-28.2 297.88-28.2 301.66-21.63Q302.35-23.27 303.37-24.61 304.4-25.95 305.69-26.9 306.98-27.86 308.56-28.37 310.13-28.88 311.96-28.88L311.96-28.88Q314.89-28.88 317.07-27.93 319.24-26.98 320.68-25.28 322.12-23.58 322.83-21.25 323.54-18.92 323.54-16.16ZM357.37-28.2L357.37-3.39Q357.37-0.02 356.37 2.95 355.37 5.93 353.47 8.17 351.56 10.4 348.79 11.71 346.02 13.01 342.48 13.01L342.48 13.01Q340.53 13.01 338.54 12.57 336.55 12.13 334.78 11.22 333.01 10.3 331.6 8.9 330.2 7.5 329.39 5.59L329.39 5.59 332.96 4.25Q333.42 5.44 334.17 6.45 334.91 7.45 335.89 8.17 336.86 8.89 338.04 9.29 339.21 9.69 340.5 9.69L340.5 9.69Q342.94 9.69 344.59 8.69 346.24 7.69 347.24 6.08 348.24 4.47 348.68 2.43 349.12 0.39 349.12-1.71L349.12-1.71 349.12-3.37Q347.66-1.37 345.59-0.4 343.53 0.56 341.06 0.56L341.06 0.56Q337.84 0.56 335.3-0.59 332.76-1.73 331.01-3.72 329.25-5.71 328.32-8.4 327.39-11.08 327.39-14.16L327.39-14.16Q327.39-17.24 328.32-19.92 329.25-22.61 331.01-24.6 332.76-26.59 335.3-27.73 337.84-28.88 341.06-28.88L341.06-28.88Q342.7-28.88 344.18-28.39 345.65-27.91 346.89-27.01 348.12-26.12 349.06-24.87 350-23.61 350.54-22.07L350.54-22.07 354.2-28.2 357.37-28.2ZM349.07-14.16L349.07-14.16Q349.07-15.26 348.96-16.48 348.85-17.7 348.58-18.9 348.31-20.09 347.84-21.18 347.36-22.27 346.62-23.11 345.87-23.95 344.82-24.44 343.77-24.93 342.38-24.93L342.38-24.93Q340.99-24.93 339.97-24.43 338.94-23.93 338.21-23.08 337.48-22.24 337-21.14 336.52-20.04 336.25-18.85 335.99-17.65 335.88-16.44 335.77-15.23 335.77-14.16L335.77-14.16Q335.77-13.09 335.88-11.87 335.99-10.64 336.25-9.45 336.52-8.25 337-7.15 337.48-6.05 338.21-5.21 338.94-4.37 339.97-3.87 340.99-3.37 342.38-3.37L342.38-3.37Q343.65-3.37 344.64-3.89 345.63-4.42 346.37-5.3 347.12-6.18 347.63-7.3 348.14-8.42 348.46-9.62 348.78-10.82 348.93-12 349.07-13.18 349.07-14.16ZM407.76-10.74L407.76-10.74Q407.76-8.47 407.18-6.74 406.61-5 405.57-3.74 404.54-2.47 403.12-1.61 401.7-0.76 400.03-0.24 398.36 0.27 396.49 0.49 394.62 0.71 392.69 0.71L392.69 0.71Q390.16 0.71 388.01 0.33 385.86-0.05 383.97-0.87 382.07-1.68 380.33-2.98 378.58-4.27 376.85-6.13L376.85-6.13 381.83-11.18Q382.51-9.5 383.71-8.07 384.91-6.64 386.33-5.62 387.76-4.59 389.3-4 390.84-3.42 392.21-3.42L392.21-3.42Q393.82-3.42 395.23-3.65 396.65-3.88 397.7-4.42 398.75-4.96 399.35-5.85 399.95-6.74 399.95-8.08L399.95-8.08Q399.95-9.11 399.48-9.84 399.02-10.57 398.27-11.1 397.53-11.62 396.58-11.99 395.62-12.35 394.64-12.61 393.65-12.87 392.69-13.07 391.74-13.28 391.01-13.5L391.01-13.5Q389.57-13.92 388.01-14.39 386.44-14.87 384.93-15.48 383.42-16.09 382.06-16.88 380.71-17.68 379.68-18.76 378.66-19.85 378.05-21.28 377.44-22.71 377.44-24.56L377.44-24.56Q377.44-26.78 377.99-28.5 378.53-30.22 379.54-31.49 380.54-32.76 381.9-33.63 383.27-34.5 384.91-35.02 386.54-35.55 388.39-35.78 390.23-36.01 392.16-36.01L392.16-36.01Q394.79-36.01 396.95-35.52 399.12-35.03 400.95-34.13 402.78-33.23 404.3-31.97 405.83-30.71 407.17-29.17L407.17-29.17 402.19-24.12Q401.61-25.88 400.57-27.29 399.53-28.71 398.26-29.72 396.99-30.74 395.6-31.29 394.21-31.84 392.91-31.84L392.91-31.84Q391.23-31.84 389.81-31.6 388.4-31.37 387.38-30.85 386.37-30.32 385.81-29.43 385.25-28.54 385.25-27.22L385.25-27.22Q385.25-26.17 385.66-25.44 386.08-24.71 386.77-24.19 387.47-23.68 388.35-23.35 389.23-23.02 390.17-22.78 391.11-22.53 392.02-22.35 392.94-22.17 393.7-21.95L393.7-21.95Q395.16-21.53 396.77-21.07 398.38-20.61 399.95-19.98 401.51-19.36 402.92-18.55 404.34-17.75 405.41-16.64 406.49-15.53 407.12-14.07 407.76-12.62 407.76-10.74ZM423.5-24.93L423.5 0 415.23 0 415.23-24.93 410.1-24.93 410.1-28.2 415.23-28.2 415.23-38.57 423.5-38.57 423.5-28.2 432.05-28.2 432.05-24.93 423.5-24.93ZM463.37-28.2L463.37 0 455.12 0 455.12-3.37Q453.65-1.37 451.59-0.4 449.53 0.56 447.06 0.56L447.06 0.56Q443.84 0.56 441.3-0.59 438.76-1.73 437-3.72 435.24-5.71 434.32-8.4 433.39-11.08 433.39-14.16L433.39-14.16Q433.39-17.24 434.32-19.92 435.24-22.61 437-24.6 438.76-26.59 441.3-27.73 443.84-28.88 447.06-28.88L447.06-28.88Q448.7-28.88 450.17-28.39 451.65-27.91 452.88-27.01 454.12-26.12 455.06-24.87 456-23.61 456.53-22.07L456.53-22.07 460.19-28.2 463.37-28.2ZM455.07-14.16L455.07-14.16Q455.07-15.26 454.96-16.48 454.85-17.7 454.58-18.9 454.31-20.09 453.83-21.18 453.36-22.27 452.61-23.11 451.87-23.95 450.82-24.44 449.77-24.93 448.38-24.93L448.38-24.93Q446.99-24.93 445.96-24.43 444.94-23.93 444.2-23.08 443.47-22.24 442.99-21.14 442.52-20.04 442.25-18.85 441.98-17.65 441.87-16.44 441.76-15.23 441.76-14.16L441.76-14.16Q441.76-13.09 441.87-11.87 441.98-10.64 442.25-9.45 442.52-8.25 442.99-7.15 443.47-6.05 444.2-5.21 444.94-4.37 445.96-3.87 446.99-3.37 448.38-3.37L448.38-3.37Q449.65-3.37 450.64-3.89 451.63-4.42 452.37-5.3 453.11-6.18 453.63-7.3 454.14-8.42 454.46-9.62 454.77-10.82 454.92-12 455.07-13.18 455.07-14.16ZM494.23-25.71L494.23-25.71 489.59-18.02Q489.29-18.99 488.83-20.21 488.37-21.44 487.68-22.5 487-23.56 486.05-24.28 485.09-25 483.85-25L483.85-25Q482.7-25 481.86-24.41 481.02-23.83 480.43-22.89 479.85-21.95 479.47-20.76 479.09-19.58 478.88-18.37 478.67-17.16 478.6-16.05 478.53-14.94 478.53-14.14L478.53-14.14 478.53 0 470.25 0 470.25-28.2 473.42-28.2 476.77-21.63Q477.45-23.22 478.33-24.55 479.21-25.88 480.36-26.84 481.51-27.81 482.96-28.34 484.41-28.88 486.24-28.88L486.24-28.88Q487.19-28.88 488.37-28.72 489.54-28.56 490.66-28.19 491.78-27.81 492.74-27.2 493.69-26.59 494.23-25.71ZM508.29-24.93L508.29 0 500.01 0 500.01-24.93 494.88-24.93 494.88-28.2 500.01-28.2 500.01-38.57 508.29-38.57 508.29-28.2 516.83-28.2 516.83-24.93 508.29-24.93ZM518.56-12.06L518.56-12.06Q518.56-13.99 518.89-16.06 519.22-18.14 519.84-20.21 520.47-22.29 521.34-24.32 522.22-26.34 523.32-28.2L523.32-28.2 529.35-28.2Q528.74-26.37 528.27-24.38 527.79-22.39 527.46-20.4 527.13-18.41 526.95-16.5 526.76-14.6 526.76-12.96L526.76-12.96Q526.76-12.01 526.85-10.93 526.94-9.84 527.15-8.75 527.37-7.67 527.78-6.67 528.18-5.66 528.81-4.9 529.45-4.13 530.37-3.67 531.28-3.22 532.53-3.22L532.53-3.22Q533.75-3.22 534.71-3.77 535.68-4.32 536.41-5.21 537.14-6.1 537.65-7.25 538.17-8.4 538.5-9.61 538.82-10.82 538.98-11.98 539.14-13.13 539.14-14.06L539.14-14.06 539.14-28.2 547.39-28.2 547.39 0 544.22 0 540.44-6.57Q539.73-4.93 538.71-3.6 537.7-2.27 536.41-1.32 535.11-0.37 533.54 0.15 531.96 0.66 530.13 0.66L530.13 0.66Q527.2 0.66 525.03-0.29 522.86-1.25 521.42-2.93 519.98-4.61 519.27-6.95 518.56-9.28 518.56-12.06ZM584.26-14.16L584.26-14.16Q584.26-11.08 583.33-8.4 582.4-5.71 580.64-3.72 578.89-1.73 576.35-0.59 573.81 0.56 570.58 0.56L570.58 0.56Q568.12 0.56 566.06-0.4 563.99-1.37 562.53-3.37L562.53-3.37 562.53 13.01 554.28 13.01 554.28-28.2 557.45-28.2 561.11-22.07Q561.65-23.61 562.59-24.87 563.53-26.12 564.76-27.01 566-27.91 567.47-28.39 568.95-28.88 570.58-28.88L570.58-28.88Q573.81-28.88 576.35-27.73 578.89-26.59 580.64-24.6 582.4-22.61 583.33-19.92 584.26-17.24 584.26-14.16ZM575.88-14.16L575.88-14.16Q575.88-15.23 575.77-16.44 575.66-17.65 575.39-18.85 575.13-20.04 574.65-21.14 574.17-22.24 573.44-23.08 572.71-23.93 571.67-24.43 570.63-24.93 569.27-24.93L569.27-24.93Q567.85-24.93 566.81-24.44 565.78-23.95 565.03-23.11 564.29-22.27 563.81-21.18 563.33-20.09 563.07-18.9 562.8-17.7 562.69-16.48 562.58-15.26 562.58-14.16L562.58-14.16Q562.58-13.18 562.72-12 562.87-10.82 563.19-9.62 563.5-8.42 564.02-7.3 564.53-6.18 565.27-5.3 566.02-4.42 567.01-3.89 568-3.37 569.27-3.37L569.27-3.37Q570.66-3.37 571.68-3.87 572.71-4.37 573.44-5.21 574.17-6.05 574.65-7.15 575.13-8.25 575.39-9.45 575.66-10.64 575.77-11.87 575.88-13.09 575.88-14.16ZM613.82-9.01L613.82-9.01Q613.82-7.15 613.28-5.71 612.75-4.27 611.82-3.21 610.89-2.15 609.62-1.43 608.35-0.71 606.9-0.27 605.45 0.17 603.86 0.37 602.27 0.56 600.71 0.56L600.71 0.56Q598.61 0.56 597 0.29 595.39 0.02 593.92-0.57 592.46-1.17 591-2.12 589.55-3.08 587.77-4.44L587.77-4.44 592.58-8.37Q593.24-7.13 594.33-6.12 595.41-5.1 596.58-4.37 597.76-3.64 598.85-3.25 599.95-2.86 600.64-2.86L600.64-2.86Q601.2-2.86 601.91-2.89 602.61-2.93 603.35-3.04 604.08-3.15 604.79-3.37 605.49-3.59 606.04-3.97 606.59-4.35 606.92-4.92 607.25-5.49 607.25-6.3L607.25-6.3Q607.25-7.13 606.83-7.75 606.4-8.37 605.71-8.84 605.03-9.3 604.15-9.62 603.27-9.94 602.38-10.18 601.49-10.42 600.66-10.61 599.83-10.79 599.22-10.96L599.22-10.96Q598.1-11.28 596.85-11.61 595.61-11.94 594.39-12.37 593.17-12.79 592.05-13.38 590.94-13.96 590.1-14.78 589.26-15.6 588.76-16.71 588.26-17.82 588.26-19.31L588.26-19.31Q588.26-22.05 589.34-23.89 590.43-25.73 592.21-26.84 594-27.95 596.27-28.42 598.54-28.88 600.88-28.88L600.88-28.88Q602.49-28.88 604.27-28.55 606.06-28.22 607.74-27.58 609.43-26.93 610.89-26 612.35-25.07 613.33-23.88L613.33-23.88 608.52-19.92Q607.98-21.39 607.12-22.44 606.25-23.49 605.24-24.16 604.22-24.83 603.16-25.15 602.1-25.46 601.2-25.46L601.2-25.46Q600.32-25.46 599.22-25.39 598.12-25.32 597.16-24.98 596.19-24.63 595.52-23.94 594.85-23.24 594.85-22.02L594.85-22.02Q594.85-21.14 595.25-20.52 595.66-19.9 596.31-19.45 596.97-18.99 597.82-18.69 598.66-18.38 599.54-18.15 600.42-17.92 601.25-17.75 602.08-17.58 602.74-17.38L602.74-17.38Q603.86-17.07 605.12-16.74 606.37-16.41 607.59-15.98 608.81-15.55 609.95-14.98 611.09-14.4 611.94-13.57 612.79-12.74 613.31-11.63 613.82-10.52 613.82-9.01ZM627.03-3.66L627.03-3.66Q627.03-2.54 626.73-1.37 626.44-0.2 625.91 0.92 625.39 2.03 624.68 3.02 623.97 4 623.14 4.76L623.14 4.76 619.63 2.91Q620.14 2.51 620.67 1.88 621.19 1.25 621.29 0.61L621.29 0.61Q620.58 0.39 620.01-0.02 619.43-0.44 619.02-1.01 618.6-1.59 618.37-2.26 618.14-2.93 618.14-3.66L618.14-3.66Q618.14-4.57 618.49-5.38 618.85-6.2 619.44-6.8 620.04-7.4 620.85-7.75 621.65-8.11 622.58-8.11L622.58-8.11Q623.51-8.11 624.32-7.75 625.12-7.4 625.73-6.8 626.34-6.2 626.68-5.38 627.03-4.57 627.03-3.66ZM684.52-17.63L684.52-17.63Q684.52-13.38 683.05-9.97 681.59-6.57 679-4.2 676.41-1.83 672.87-0.56 669.33 0.71 665.2 0.71L665.2 0.71Q661.08 0.71 657.54-0.56 654-1.83 651.41-4.2 648.82-6.57 647.36-9.97 645.89-13.38 645.89-17.63L645.89-17.63Q645.89-21.95 647.34-25.35 648.8-28.76 651.37-31.12 653.95-33.47 657.49-34.73 661.03-35.99 665.2-35.99L665.2-35.99Q669.38-35.99 672.92-34.73 676.46-33.47 679.03-31.12 681.61-28.76 683.06-25.35 684.52-21.95 684.52-17.63ZM674.65-17.63L674.65-17.63Q674.65-19.24 674.51-20.92 674.36-22.61 673.97-24.19 673.58-25.78 672.91-27.17 672.24-28.56 671.19-29.6 670.14-30.64 668.66-31.24 667.18-31.84 665.2-31.84L665.2-31.84Q663.2-31.84 661.71-31.24 660.22-30.64 659.17-29.61 658.12-28.59 657.46-27.2 656.81-25.81 656.43-24.23 656.05-22.66 655.9-20.96 655.76-19.26 655.76-17.63L655.76-17.63Q655.76-16.02 655.9-14.33 656.05-12.65 656.44-11.07 656.83-9.5 657.5-8.11 658.17-6.71 659.22-5.68 660.27-4.64 661.75-4.03 663.23-3.42 665.2-3.42L665.2-3.42Q667.13-3.42 668.57-4.04 670.01-4.66 671.06-5.73 672.11-6.79 672.81-8.19 673.5-9.59 673.91-11.17 674.31-12.74 674.48-14.4 674.65-16.06 674.65-17.63ZM718.47-16.16L718.47-16.16Q718.47-13.31 717.78-10.21 717.08-7.1 715.84-4.13 714.59-1.15 712.86 1.48 711.12 4.1 709.05 6.01L709.05 6.01 705.95 4.32Q706.61 3.1 707.19 1.59 707.78 0.07 708.26-1.62 708.73-3.32 709.11-5.13 709.49-6.93 709.74-8.7 710-10.47 710.14-12.15 710.27-13.82 710.27-15.26L710.27-15.26Q710.27-16.21 710.2-17.3 710.12-18.38 709.89-19.47 709.66-20.56 709.27-21.56 708.88-22.56 708.23-23.32 707.58-24.07 706.67-24.54 705.75-25 704.51-25L704.51-25Q703.29-25 702.34-24.45 701.38-23.9 700.65-23.01 699.92-22.12 699.39-20.97 698.87-19.82 698.54-18.62 698.21-17.41 698.06-16.24 697.92-15.06 697.92-14.14L697.92-14.14 697.92 0 689.64 0 689.64-28.2 692.81-28.2 696.6-21.63Q697.28-23.27 698.31-24.61 699.33-25.95 700.63-26.9 701.92-27.86 703.49-28.37 705.07-28.88 706.9-28.88L706.9-28.88Q709.83-28.88 712-27.93 714.18-26.98 715.62-25.28 717.06-23.58 717.76-21.25 718.47-18.92 718.47-16.16ZM730.7-13.38L730.7-13.38Q732.22-13.04 733.73-12.84 735.24-12.65 736.78-12.65L736.78-12.65Q738.39-12.65 739.77-12.95 741.15-13.26 742.16-13.98 743.18-14.7 743.76-15.89 744.35-17.09 744.35-18.87L744.35-18.87Q744.35-20.31 743.96-21.51 743.57-22.71 742.8-23.56 742.03-24.41 740.91-24.89 739.78-25.37 738.29-25.37L738.29-25.37Q736.9-25.37 735.79-24.85 734.68-24.34 733.84-23.47 733-22.61 732.4-21.46 731.8-20.31 731.41-19.07 731.02-17.82 730.85-16.55 730.68-15.28 730.68-14.16L730.68-14.16Q730.68-13.96 730.68-13.77 730.68-13.57 730.7-13.38ZM751.04-18.95L751.04-18.95Q751.04-17.21 750.48-15.86 749.92-14.5 748.95-13.48 747.99-12.45 746.72-11.74 745.45-11.04 744.01-10.58 742.57-10.13 741.04-9.94 739.52-9.74 738.07-9.74L738.07-9.74Q736.24-9.74 734.46-10 732.68-10.25 730.95-10.82L730.95-10.82Q731.21-9.2 731.8-7.75 732.39-6.3 733.36-5.21 734.34-4.13 735.77-3.49 737.2-2.86 739.15-2.86L739.15-2.86Q740.44-2.86 741.61-3.25 742.79-3.64 743.76-4.35 744.74-5.05 745.48-6.03 746.23-7.01 746.69-8.2L746.69-8.2 750.26-6.88Q749.45-4.96 748.05-3.55 746.64-2.15 744.87-1.23 743.1-0.32 741.11 0.12 739.12 0.56 737.17 0.56L737.17 0.56Q733.95 0.56 731.21-0.52 728.48-1.61 726.5-3.56 724.52-5.52 723.4-8.23 722.28-10.94 722.28-14.16L722.28-14.16Q722.28-17.38 723.4-20.09 724.52-22.8 726.5-24.76 728.48-26.71 731.21-27.8 733.95-28.88 737.17-28.88L737.17-28.88Q738.73-28.88 740.37-28.66 742.01-28.44 743.54-27.97 745.08-27.49 746.45-26.73 747.82-25.98 748.83-24.87 749.84-23.75 750.44-22.29 751.04-20.83 751.04-18.95ZM780.57-13.13L780.57 0 770.88 0 770.88-35.16 789.88-35.16Q792.34-35.16 794.6-34.5 796.86-33.84 798.59-32.51 800.33-31.18 801.36-29.16 802.4-27.15 802.4-24.44L802.4-24.44Q802.4-22.73 801.91-21.23 801.42-19.73 800.56-18.48 799.69-17.24 798.52-16.24 797.35-15.23 795.96-14.55 794.56-13.87 793.01-13.5 791.46-13.13 789.88-13.13L789.88-13.13 780.57-13.13ZM792.59-24.44L792.59-24.44Q792.59-27.83 790.87-29.77 789.14-31.71 785.68-31.71L785.68-31.71 780.57-31.71 780.57-16.46 785.68-16.46Q787.53-16.46 788.84-17.05 790.14-17.65 790.98-18.73 791.81-19.8 792.2-21.25 792.59-22.71 792.59-24.44ZM830.6-25.71L830.6-25.71 825.96-18.02Q825.66-18.99 825.2-20.21 824.74-21.44 824.05-22.5 823.37-23.56 822.42-24.28 821.47-25 820.22-25L820.22-25Q819.07-25 818.23-24.41 817.39-23.83 816.8-22.89 816.22-21.95 815.84-20.76 815.46-19.58 815.25-18.37 815.04-17.16 814.97-16.05 814.9-14.94 814.9-14.14L814.9-14.14 814.9 0 806.62 0 806.62-28.2 809.8-28.2 813.14-21.63Q813.82-23.22 814.7-24.55 815.58-25.88 816.73-26.84 817.88-27.81 819.33-28.34 820.78-28.88 822.61-28.88L822.61-28.88Q823.57-28.88 824.74-28.72 825.91-28.56 827.03-28.19 828.16-27.81 829.11-27.2 830.06-26.59 830.6-25.71ZM863.09-14.16L863.09-14.16Q863.09-11.96 862.5-10.03 861.92-8.11 860.88-6.47 859.84-4.83 858.38-3.53 856.91-2.22 855.17-1.32 853.42-0.42 851.43 0.07 849.44 0.56 847.34 0.56L847.34 0.56Q845.24 0.56 843.26 0.07 841.29-0.42 839.54-1.32 837.8-2.22 836.33-3.53 834.87-4.83 833.83-6.47 832.79-8.11 832.21-10.05 831.62-11.99 831.62-14.16L831.62-14.16Q831.62-16.33 832.21-18.27 832.79-20.21 833.83-21.85 834.87-23.49 836.33-24.79 837.8-26.1 839.54-27 841.29-27.91 843.26-28.39 845.24-28.88 847.34-28.88L847.34-28.88Q849.44-28.88 851.43-28.39 853.42-27.91 855.17-27 856.91-26.1 858.38-24.79 859.84-23.49 860.88-21.85 861.92-20.21 862.5-18.27 863.09-16.33 863.09-14.16ZM854.69-14.16L854.69-14.16Q854.69-15.33 854.56-16.64 854.42-17.94 854.1-19.2 853.79-20.46 853.24-21.62 852.69-22.78 851.88-23.65 851.08-24.51 849.95-25.04 848.83-25.56 847.34-25.56L847.34-25.56Q845.93-25.56 844.83-25.02 843.73-24.49 842.91-23.6 842.09-22.71 841.54-21.53 840.99-20.36 840.65-19.1 840.31-17.85 840.16-16.56 840.02-15.28 840.02-14.16L840.02-14.16Q840.02-13.04 840.16-11.76 840.31-10.47 840.65-9.2 840.99-7.93 841.54-6.77 842.09-5.62 842.91-4.72 843.73-3.83 844.83-3.3 845.93-2.76 847.34-2.76L847.34-2.76Q848.81-2.76 849.93-3.28 851.05-3.81 851.87-4.69 852.69-5.57 853.23-6.71 853.76-7.86 854.09-9.13 854.42-10.4 854.56-11.69 854.69-12.99 854.69-14.16ZM898.27-14.16L898.27-14.16Q898.27-11.08 897.34-8.4 896.41-5.71 894.65-3.72 892.9-1.73 890.36-0.59 887.82 0.56 884.6 0.56L884.6 0.56Q882.13 0.56 880.07-0.4 878-1.37 876.54-3.37L876.54-3.37 876.54 13.01 868.29 13.01 868.29-28.2 871.46-28.2 875.12-22.07Q875.66-23.61 876.6-24.87 877.54-26.12 878.77-27.01 880.01-27.91 881.48-28.39 882.96-28.88 884.6-28.88L884.6-28.88Q887.82-28.88 890.36-27.73 892.9-26.59 894.65-24.6 896.41-22.61 897.34-19.92 898.27-17.24 898.27-14.16ZM889.89-14.16L889.89-14.16Q889.89-15.23 889.78-16.44 889.67-17.65 889.41-18.85 889.14-20.04 888.66-21.14 888.18-22.24 887.45-23.08 886.72-23.93 885.68-24.43 884.64-24.93 883.28-24.93L883.28-24.93Q881.86-24.93 880.82-24.44 879.79-23.95 879.04-23.11 878.3-22.27 877.82-21.18 877.34-20.09 877.08-18.9 876.81-17.7 876.7-16.48 876.59-15.26 876.59-14.16L876.59-14.16Q876.59-13.18 876.73-12 876.88-10.82 877.2-9.62 877.52-8.42 878.03-7.3 878.54-6.18 879.29-5.3 880.03-4.42 881.02-3.89 882.01-3.37 883.28-3.37L883.28-3.37Q884.67-3.37 885.69-3.87 886.72-4.37 887.45-5.21 888.18-6.05 888.66-7.15 889.14-8.25 889.41-9.45 889.67-10.64 889.78-11.87 889.89-13.09 889.89-14.16ZM933.35-14.16L933.35-14.16Q933.35-11.96 932.76-10.03 932.18-8.11 931.14-6.47 930.1-4.83 928.64-3.53 927.17-2.22 925.43-1.32 923.68-0.42 921.69 0.07 919.7 0.56 917.6 0.56L917.6 0.56Q915.5 0.56 913.52 0.07 911.55-0.42 909.8-1.32 908.05-2.22 906.59-3.53 905.13-4.83 904.09-6.47 903.05-8.11 902.46-10.05 901.88-11.99 901.88-14.16L901.88-14.16Q901.88-16.33 902.46-18.27 903.05-20.21 904.09-21.85 905.13-23.49 906.59-24.79 908.05-26.1 909.8-27 911.55-27.91 913.52-28.39 915.5-28.88 917.6-28.88L917.6-28.88Q919.7-28.88 921.69-28.39 923.68-27.91 925.43-27 927.17-26.1 928.64-24.79 930.1-23.49 931.14-21.85 932.18-20.21 932.76-18.27 933.35-16.33 933.35-14.16ZM924.95-14.16L924.95-14.16Q924.95-15.33 924.82-16.64 924.68-17.94 924.36-19.2 924.05-20.46 923.5-21.62 922.95-22.78 922.14-23.65 921.34-24.51 920.21-25.04 919.09-25.56 917.6-25.56L917.6-25.56Q916.18-25.56 915.09-25.02 913.99-24.49 913.17-23.6 912.35-22.71 911.8-21.53 911.25-20.36 910.91-19.1 910.57-17.85 910.42-16.56 910.28-15.28 910.28-14.16L910.28-14.16Q910.28-13.04 910.42-11.76 910.57-10.47 910.91-9.2 911.25-7.93 911.8-6.77 912.35-5.62 913.17-4.72 913.99-3.83 915.09-3.3 916.18-2.76 917.6-2.76L917.6-2.76Q919.07-2.76 920.19-3.28 921.31-3.81 922.13-4.69 922.95-5.57 923.48-6.71 924.02-7.86 924.35-9.13 924.68-10.4 924.82-11.69 924.95-12.99 924.95-14.16ZM962.81-9.01L962.81-9.01Q962.81-7.15 962.28-5.71 961.74-4.27 960.81-3.21 959.88-2.15 958.61-1.43 957.34-0.71 955.89-0.27 954.44 0.17 952.85 0.37 951.27 0.56 949.7 0.56L949.7 0.56Q947.6 0.56 945.99 0.29 944.38 0.02 942.92-0.57 941.45-1.17 940-2.12 938.55-3.08 936.76-4.44L936.76-4.44 941.57-8.37Q942.23-7.13 943.32-6.12 944.4-5.1 945.58-4.37 946.75-3.64 947.85-3.25 948.95-2.86 949.63-2.86L949.63-2.86Q950.19-2.86 950.9-2.89 951.61-2.93 952.34-3.04 953.07-3.15 953.78-3.37 954.49-3.59 955.04-3.97 955.59-4.35 955.92-4.92 956.25-5.49 956.25-6.3L956.25-6.3Q956.25-7.13 955.82-7.75 955.39-8.37 954.71-8.84 954.02-9.3 953.15-9.62 952.27-9.94 951.38-10.18 950.48-10.42 949.65-10.61 948.82-10.79 948.21-10.96L948.21-10.96Q947.09-11.28 945.85-11.61 944.6-11.94 943.38-12.37 942.16-12.79 941.05-13.38 939.94-13.96 939.09-14.78 938.25-15.6 937.75-16.71 937.25-17.82 937.25-19.31L937.25-19.31Q937.25-22.05 938.34-23.89 939.42-25.73 941.21-26.84 942.99-27.95 945.26-28.42 947.53-28.88 949.87-28.88L949.87-28.88Q951.48-28.88 953.27-28.55 955.05-28.22 956.73-27.58 958.42-26.93 959.88-26 961.35-25.07 962.32-23.88L962.32-23.88 957.52-19.92Q956.98-21.39 956.11-22.44 955.24-23.49 954.23-24.16 953.22-24.83 952.16-25.15 951.09-25.46 950.19-25.46L950.19-25.46Q949.31-25.46 948.21-25.39 947.11-25.32 946.15-24.98 945.19-24.63 944.51-23.94 943.84-23.24 943.84-22.02L943.84-22.02Q943.84-21.14 944.25-20.52 944.65-19.9 945.31-19.45 945.97-18.99 946.81-18.69 947.65-18.38 948.53-18.15 949.41-17.92 950.24-17.75 951.07-17.58 951.73-17.38L951.73-17.38Q952.85-17.07 954.11-16.74 955.37-16.41 956.59-15.98 957.81-15.55 958.94-14.98 960.08-14.4 960.93-13.57 961.79-12.74 962.3-11.63 962.81-10.52 962.81-9.01ZM996.4-28.2L996.4 0 988.15 0 988.15-3.37Q986.69-1.37 984.62-0.4 982.56 0.56 980.1 0.56L980.1 0.56Q976.87 0.56 974.33-0.59 971.79-1.73 970.04-3.72 968.28-5.71 967.35-8.4 966.42-11.08 966.42-14.16L966.42-14.16Q966.42-17.24 967.35-19.92 968.28-22.61 970.04-24.6 971.79-26.59 974.33-27.73 976.87-28.88 980.1-28.88L980.1-28.88Q981.73-28.88 983.21-28.39 984.69-27.91 985.92-27.01 987.15-26.12 988.09-24.87 989.03-23.61 989.57-22.07L989.57-22.07 993.23-28.2 996.4-28.2ZM988.1-14.16L988.1-14.16Q988.1-15.26 987.99-16.48 987.88-17.7 987.62-18.9 987.35-20.09 986.87-21.18 986.39-22.27 985.65-23.11 984.91-23.95 983.86-24.44 982.81-24.93 981.41-24.93L981.41-24.93Q980.02-24.93 979-24.43 977.97-23.93 977.24-23.08 976.51-22.24 976.03-21.14 975.55-20.04 975.29-18.85 975.02-17.65 974.91-16.44 974.8-15.23 974.8-14.16L974.8-14.16Q974.8-13.09 974.91-11.87 975.02-10.64 975.29-9.45 975.55-8.25 976.03-7.15 976.51-6.05 977.24-5.21 977.97-4.37 979-3.87 980.02-3.37 981.41-3.37L981.41-3.37Q982.68-3.37 983.67-3.89 984.66-4.42 985.41-5.3 986.15-6.18 986.66-7.3 987.18-8.42 987.49-9.62 987.81-10.82 987.96-12 988.1-13.18 988.1-14.16ZM1011.54-32.62L1011.54 0 1003.29 0 1003.29-41.19 1006.46-41.19 1011.54-32.62ZM1060.97-28.2L1060.97 0 1052.72 0 1052.72-3.37Q1051.26-1.37 1049.19-0.4 1047.13 0.56 1044.66 0.56L1044.66 0.56Q1041.44 0.56 1038.9-0.59 1036.36-1.73 1034.6-3.72 1032.85-5.71 1031.92-8.4 1030.99-11.08 1030.99-14.16L1030.99-14.16Q1030.99-17.24 1031.92-19.92 1032.85-22.61 1034.6-24.6 1036.36-26.59 1038.9-27.73 1041.44-28.88 1044.66-28.88L1044.66-28.88Q1046.3-28.88 1047.78-28.39 1049.25-27.91 1050.49-27.01 1051.72-26.12 1052.66-24.87 1053.6-23.61 1054.14-22.07L1054.14-22.07 1057.8-28.2 1060.97-28.2ZM1052.67-14.16L1052.67-14.16Q1052.67-15.26 1052.56-16.48 1052.45-17.7 1052.18-18.9 1051.91-20.09 1051.44-21.18 1050.96-22.27 1050.22-23.11 1049.47-23.95 1048.42-24.44 1047.37-24.93 1045.98-24.93L1045.98-24.93Q1044.59-24.93 1043.56-24.43 1042.54-23.93 1041.81-23.08 1041.07-22.24 1040.6-21.14 1040.12-20.04 1039.85-18.85 1039.59-17.65 1039.48-16.44 1039.37-15.23 1039.37-14.16L1039.37-14.16Q1039.37-13.09 1039.48-11.87 1039.59-10.64 1039.85-9.45 1040.12-8.25 1040.6-7.15 1041.07-6.05 1041.81-5.21 1042.54-4.37 1043.56-3.87 1044.59-3.37 1045.98-3.37L1045.98-3.37Q1047.25-3.37 1048.24-3.89 1049.23-4.42 1049.97-5.3 1050.72-6.18 1051.23-7.3 1051.74-8.42 1052.06-9.62 1052.38-10.82 1052.52-12 1052.67-13.18 1052.67-14.16ZM1078.47-24.93L1078.47 0 1070.2 0 1070.2-24.93 1065.07-24.93 1065.07-28.2 1070.2-28.2 1070.2-38.57 1078.47-38.57 1078.47-28.2 1087.02-28.2 1087.02-24.93 1078.47-24.93ZM1133.4-28.2L1133.4 0 1125.15 0 1125.15-3.37Q1123.68-1.37 1121.62-0.4 1119.56 0.56 1117.09 0.56L1117.09 0.56Q1113.87 0.56 1111.33-0.59 1108.79-1.73 1107.03-3.72 1105.28-5.71 1104.35-8.4 1103.42-11.08 1103.42-14.16L1103.42-14.16Q1103.42-17.24 1104.35-19.92 1105.28-22.61 1107.03-24.6 1108.79-26.59 1111.33-27.73 1113.87-28.88 1117.09-28.88L1117.09-28.88Q1118.73-28.88 1120.21-28.39 1121.68-27.91 1122.92-27.01 1124.15-26.12 1125.09-24.87 1126.03-23.61 1126.57-22.07L1126.57-22.07 1130.23-28.2 1133.4-28.2ZM1125.1-14.16L1125.1-14.16Q1125.1-15.26 1124.99-16.48 1124.88-17.7 1124.61-18.9 1124.34-20.09 1123.87-21.18 1123.39-22.27 1122.65-23.11 1121.9-23.95 1120.85-24.44 1119.8-24.93 1118.41-24.93L1118.41-24.93Q1117.02-24.93 1115.99-24.43 1114.97-23.93 1114.24-23.08 1113.5-22.24 1113.03-21.14 1112.55-20.04 1112.28-18.85 1112.01-17.65 1111.9-16.44 1111.79-15.23 1111.79-14.16L1111.79-14.16Q1111.79-13.09 1111.9-11.87 1112.01-10.64 1112.28-9.45 1112.55-8.25 1113.03-7.15 1113.5-6.05 1114.24-5.21 1114.97-4.37 1115.99-3.87 1117.02-3.37 1118.41-3.37L1118.41-3.37Q1119.68-3.37 1120.67-3.89 1121.66-4.42 1122.4-5.3 1123.15-6.18 1123.66-7.3 1124.17-8.42 1124.49-9.62 1124.81-10.82 1124.95-12 1125.1-13.18 1125.1-14.16ZM1171.24-30.66L1171.24 0 1161.55 0 1161.55-30.66 1151.98-30.66 1151.98-35.16 1180.81-35.16 1180.81-30.66 1171.24-30.66ZM1193.43-35.01L1193.43-35.01Q1193.43-34.08 1193.07-33.25 1192.72-32.42 1192.11-31.81 1191.5-31.2 1190.67-30.85 1189.84-30.49 1188.91-30.49L1188.91-30.49Q1187.98-30.49 1187.17-30.85 1186.35-31.2 1185.74-31.81 1185.13-32.42 1184.77-33.25 1184.42-34.08 1184.42-35.01L1184.42-35.01Q1184.42-35.94 1184.77-36.76 1185.13-37.57 1185.74-38.18 1186.35-38.79 1187.17-39.15 1187.98-39.5 1188.91-39.5L1188.91-39.5Q1189.84-39.5 1190.67-39.15 1191.5-38.79 1192.11-38.18 1192.72-37.57 1193.07-36.76 1193.43-35.94 1193.43-35.01ZM1193.06-28.17L1193.06 0 1184.79 0 1184.79-28.17 1193.06-28.17ZM1243.6-16.46L1243.6-16.46Q1243.6-13.55 1242.91-10.4 1242.23-7.25 1241-4.26 1239.76-1.27 1238.03 1.39 1236.3 4.05 1234.17 6.01L1234.17 6.01 1231.07 4.32Q1231.78 3.05 1232.37 1.46 1232.95-0.12 1233.44-1.88 1233.93-3.64 1234.29-5.49 1234.66-7.35 1234.92-9.19 1235.17-11.04 1235.3-12.77 1235.42-14.5 1235.42-16.02L1235.42-16.02Q1235.42-16.87 1235.37-17.87 1235.32-18.87 1235.16-19.87 1235-20.87 1234.69-21.79 1234.37-22.71 1233.82-23.43 1233.27-24.15 1232.45-24.57 1231.63-25 1230.49-25L1230.49-25Q1229.36-25 1228.57-24.4 1227.78-23.8 1227.21-22.85 1226.65-21.9 1226.32-20.7 1225.99-19.51 1225.82-18.3 1225.65-17.09 1225.59-15.99 1225.53-14.89 1225.53-14.14L1225.53-14.14 1225.53 0 1217.3 0 1217.3-13.13Q1217.3-13.99 1217.33-15.2 1217.35-16.41 1217.27-17.72 1217.18-19.04 1216.95-20.35 1216.72-21.66 1216.22-22.68 1215.72-23.71 1214.86-24.35 1214.01-25 1212.71-25L1212.71-25Q1211.61-25 1210.87-24.39 1210.12-23.78 1209.62-22.81 1209.12-21.85 1208.84-20.64 1208.56-19.43 1208.43-18.23 1208.29-17.02 1208.27-15.93 1208.24-14.84 1208.24-14.14L1208.24-14.14 1208.24 0 1199.97 0 1199.97-28.2 1203.14-28.2 1206.17-21.63Q1207.19-25.05 1209.4-26.97 1211.61-28.88 1215.28-28.88L1215.28-28.88Q1218.57-28.88 1220.74-27.51 1222.92-26.15 1224.16-23.07L1224.16-23.07Q1224.87-24.41 1225.74-25.49 1226.6-26.56 1227.67-27.32 1228.73-28.08 1230.02-28.48 1231.32-28.88 1232.88-28.88L1232.88-28.88Q1235.76-28.88 1237.8-27.94 1239.84-27 1241.13-25.34 1242.42-23.68 1243.01-21.4 1243.6-19.12 1243.6-16.46ZM1255.87-13.38L1255.87-13.38Q1257.39-13.04 1258.9-12.84 1260.41-12.65 1261.95-12.65L1261.95-12.65Q1263.56-12.65 1264.94-12.95 1266.32-13.26 1267.34-13.98 1268.35-14.7 1268.94-15.89 1269.52-17.09 1269.52-18.87L1269.52-18.87Q1269.52-20.31 1269.13-21.51 1268.74-22.71 1267.97-23.56 1267.2-24.41 1266.08-24.89 1264.96-25.37 1263.47-25.37L1263.47-25.37Q1262.08-25.37 1260.96-24.85 1259.85-24.34 1259.01-23.47 1258.17-22.61 1257.57-21.46 1256.97-20.31 1256.58-19.07 1256.19-17.82 1256.02-16.55 1255.85-15.28 1255.85-14.16L1255.85-14.16Q1255.85-13.96 1255.85-13.77 1255.85-13.57 1255.87-13.38ZM1276.21-18.95L1276.21-18.95Q1276.21-17.21 1275.65-15.86 1275.09-14.5 1274.12-13.48 1273.16-12.45 1271.89-11.74 1270.62-11.04 1269.18-10.58 1267.74-10.13 1266.21-9.94 1264.69-9.74 1263.25-9.74L1263.25-9.74Q1261.42-9.74 1259.63-10 1257.85-10.25 1256.12-10.82L1256.12-10.82Q1256.39-9.2 1256.97-7.75 1257.56-6.3 1258.54-5.21 1259.51-4.13 1260.94-3.49 1262.37-2.86 1264.32-2.86L1264.32-2.86Q1265.62-2.86 1266.79-3.25 1267.96-3.64 1268.94-4.35 1269.91-5.05 1270.66-6.03 1271.4-7.01 1271.87-8.2L1271.87-8.2 1275.43-6.88Q1274.62-4.96 1273.22-3.55 1271.82-2.15 1270.05-1.23 1268.28-0.32 1266.29 0.12 1264.3 0.56 1262.34 0.56L1262.34 0.56Q1259.12 0.56 1256.39-0.52 1253.65-1.61 1251.67-3.56 1249.7-5.52 1248.57-8.23 1247.45-10.94 1247.45-14.16L1247.45-14.16Q1247.45-17.38 1248.57-20.09 1249.7-22.8 1251.67-24.76 1253.65-26.71 1256.39-27.8 1259.12-28.88 1262.34-28.88L1262.34-28.88Q1263.91-28.88 1265.54-28.66 1267.18-28.44 1268.72-27.97 1270.25-27.49 1271.62-26.73 1272.99-25.98 1274-24.87 1275.01-23.75 1275.61-22.29 1276.21-20.83 1276.21-18.95ZM1289.37-3.66L1289.37-3.66Q1289.37-2.73 1289.03-1.92 1288.68-1.1 1288.07-0.5 1287.46 0.1 1286.66 0.45 1285.85 0.81 1284.92 0.81L1284.92 0.81Q1284 0.81 1283.19 0.45 1282.39 0.1 1281.77-0.5 1281.16-1.1 1280.82-1.92 1280.48-2.73 1280.48-3.66L1280.48-3.66Q1280.48-4.57 1280.82-5.38 1281.16-6.2 1281.77-6.8 1282.39-7.4 1283.19-7.75 1284-8.11 1284.92-8.11L1284.92-8.11Q1285.85-8.11 1286.66-7.75 1287.46-7.4 1288.07-6.8 1288.68-6.2 1289.03-5.38 1289.37-4.57 1289.37-3.66ZM1299.4-35.16L1308.36-35.16 1306.85-22.9 1300.91-22.9 1299.4-35.16ZM1288.41-35.16L1297.35-35.16 1295.86-22.9 1289.9-22.9 1288.41-35.16Z" opacity="1" transform="matrix(1,0,0,1,0,0)" fill="#c8c8c8" class="slogan-text-1" data-fill-palette-color="secondary" id="text-1"></path></svg></g></svg></g></svg></g></svg></g><g transform="matrix(1,0,0,1,75.54432,0)"><svg viewBox="0 0 244.43135999999998 244.43135999999998" height="244.43135999999998" width="244.43135999999998"><g><svg viewBox="0 0 244.43135999999998 244.43135999999998" height="244.43135999999998" width="244.43135999999998"><g transform="matrix(1,0,0,1,80.22684223166448,64.60265593644992)"><svg viewBox="0 0 83.97767553667104 115.22604812710014" height="115.22604812710014" width="83.97767553667104"><g><svg xmlns="http://www.w3.org/2000/svg" xmlns:xlink="http://www.w3.org/1999/xlink" version="1.1" x="0" y="0" viewBox="16.572 4.876 62.85532452693107 86.244" enable-background="new 0 0 96 96" xml:space="preserve" height="115.22604812710014" width="83.97767553667104" class="icon-dxe-0" data-fill-palette-color="accent" id="dxe-0"><path d="M47.66 40.752C46.88 40.852 46.232 41.4 46 42.16 43.312 51.008 40.024 56.504 38.748 57.624 36.668 54.652 33.896 47.308 32.58 38.828A2 2 0 0 0 31.136 37.2 2.02 2.02 0 0 0 29.064 37.852C21.436 47.028 16.572 65.9 16.572 72.704 16.572 82.864 26.18 91.12 37.992 91.12S59.412 82.864 59.412 72.704C59.412 66.584 55.596 51.452 49.616 41.692A1.97 1.97 0 0 0 47.66 40.752" fill="#000000" data-fill-palette-color="accent"></path><path d="M34.344 8.884C43.02 8.884 44.844 16.088 44.844 22.136 44.844 26.828 42.744 31.8 40.708 36.612 38.848 41.02 37.092 45.18 37.092 48.884A2 2 0 0 0 41.092 48.884C41.092 45.98 42.696 42.184 44.392 38.164 46.476 33.228 48.84 27.624 48.84 22.128 48.84 11.172 43.556 4.876 34.34 4.876 33.236 4.876 32.34 5.772 32.34 6.876S33.24 8.884 34.344 8.884" fill="#000000" data-fill-palette-color="accent"></path><path d="M77.943 18.688C75.056 17.92 72.228 17.528 69.536 17.528 58.928 17.528 51.275 23.548 49.064 33.624A1.99 1.99 0 0 0 50.24 35.892C53.435 37.236 56.595 37.916 59.64 37.916 70.675 37.916 77.607 29.164 79.383 21.04A2.003 2.003 0 0 0 77.943 18.688" fill="#000000" data-fill-palette-color="accent"></path></svg></g></svg></g><g id="text-0"><path d="M22.885 89.217v0c-0.429 1.284-0.964 2.291-1.604 3.022-0.634 0.733-1.293 1.215-1.976 1.448-0.69 0.231-1.314 0.253-1.872 0.067v0c-0.791-0.264-1.374-0.852-1.747-1.762-0.376-0.904-0.363-1.956 0.038-3.156v0c1.057 0.353 1.946 0.499 2.666 0.436 0.727-0.06 1.293-0.256 1.7-0.589 0.413-0.331 0.686-0.694 0.818-1.089v0c0.16-0.48 0.151-0.926-0.028-1.34-0.171-0.417-0.46-0.694-0.869-0.831v0c-0.584-0.195-1.194-0.064-1.83 0.395-0.636 0.458-1.382 1.074-2.239 1.847v0c-0.45 0.376-0.959 0.779-1.528 1.209-0.569 0.43-1.195 0.751-1.879 0.962-0.677 0.214-1.398 0.193-2.163-0.063v0c-0.811-0.271-1.449-0.744-1.916-1.419-0.467-0.675-0.783-1.465-0.949-2.371-0.166-0.906-0.21-1.843-0.131-2.813 0.076-0.962 0.256-1.868 0.54-2.717v0c0.533-1.595 1.255-2.688 2.166-3.278 0.913-0.596 1.733-0.773 2.459-0.53v0c0.623 0.208 1.08 0.707 1.371 1.496 0.285 0.787 0.213 1.823-0.217 3.107v0c-1.051-0.373-1.895-0.413-2.533-0.122-0.638 0.291-1.044 0.697-1.217 1.216v0c-0.123 0.37-0.114 0.719 0.029 1.048 0.151 0.324 0.444 0.559 0.878 0.704v0c0.493 0.165 0.974 0.149 1.444-0.048 0.472-0.203 0.928-0.501 1.369-0.894 0.441-0.393 0.875-0.807 1.301-1.241v0c0.565-0.59 1.136-1.134 1.714-1.634 0.584-0.497 1.179-0.864 1.785-1.102 0.61-0.229 1.255-0.229 1.936-0.002v0c0.934 0.312 1.674 0.977 2.22 1.997 0.544 1.025 0.848 2.252 0.913 3.678 0.066 1.421-0.15 2.877-0.649 4.369z" fill="#000000" data-fill-palette-color="accent"></path><path d="M35.272 63.554v0c-0.88 1.328-1.877 2.251-2.991 2.768-1.114 0.517-2.258 0.702-3.432 0.555-1.174-0.147-2.272-0.558-3.292-1.234v0c-0.963-0.638-1.808-1.469-2.533-2.491-0.729-1.016-1.253-2.151-1.571-3.403-0.328-1.251-0.397-2.552-0.207-3.903 0.194-1.357 0.717-2.679 1.571-3.967v0c1.061-1.602 2.197-2.535 3.406-2.8 1.205-0.259 2.318-0.051 3.339 0.626v0c0.872 0.578 1.526 1.343 1.96 2.296 0.426 0.955 0.608 1.961 0.546 3.019-0.062 1.058-0.395 2.044-0.999 2.956v0c-0.314 0.473-0.704 0.907-1.171 1.303-0.473 0.392-1.02 0.723-1.642 0.992v0c1.189 0.657 2.224 0.871 3.106 0.643 0.887-0.224 1.589-0.727 2.106-1.508v0c0.363-0.547 0.62-1.164 0.772-1.851 0.148-0.681 0.209-1.367 0.182-2.058-0.03-0.685-0.151-1.282-0.363-1.791v0l0.261-0.097c0.946 0.627 1.624 1.355 2.034 2.185 0.401 0.831 0.6 1.706 0.599 2.624-0.007 0.914-0.163 1.812-0.467 2.692-0.314 0.883-0.719 1.697-1.214 2.444zM28.321 58.037v0c0.385-0.581 0.531-1.166 0.436-1.753-0.095-0.588-0.309-1.124-0.644-1.608-0.335-0.485-0.674-0.84-1.016-1.067v0c-0.422-0.28-0.852-0.392-1.289-0.338-0.44 0.045-0.8 0.278-1.079 0.7v0c-0.215 0.325-0.334 0.763-0.355 1.315-0.027 0.548 0.145 1.167 0.517 1.856 0.366 0.686 1.029 1.412 1.989 2.179v0c0.659-0.4 1.139-0.828 1.441-1.284z" fill="#000000" data-fill-palette-color="accent"></path><path d="M53.669 42.646v0c-1.2 1.048-2.405 1.674-3.616 1.879-1.211 0.204-2.363 0.081-3.456-0.372-1.094-0.452-2.043-1.138-2.849-2.06v0c-0.76-0.87-1.355-1.894-1.785-3.071-0.435-1.173-0.64-2.406-0.615-3.698 0.014-1.293 0.292-2.566 0.831-3.819 0.545-1.257 1.4-2.394 2.564-3.41v0c1.447-1.264 2.789-1.864 4.025-1.801 1.231 0.068 2.249 0.564 3.054 1.486v0c0.688 0.788 1.116 1.699 1.284 2.732 0.158 1.033 0.068 2.052-0.271 3.057-0.339 1.004-0.921 1.867-1.745 2.586v0c-0.427 0.373-0.919 0.689-1.474 0.947-0.56 0.253-1.175 0.427-1.845 0.523v0c0.973 0.948 1.915 1.428 2.825 1.441 0.915 0.018 1.725-0.281 2.43-0.898v0c0.494-0.432 0.905-0.959 1.234-1.581 0.323-0.618 0.563-1.263 0.719-1.936 0.152-0.668 0.193-1.276 0.123-1.824v0l0.278-0.024c0.747 0.855 1.208 1.736 1.384 2.644 0.167 0.908 0.128 1.804-0.116 2.689-0.248 0.88-0.636 1.704-1.162 2.473-0.536 0.768-1.142 1.447-1.817 2.037zM48.424 35.488v0c0.525-0.459 0.82-0.984 0.884-1.576 0.064-0.592-0.001-1.166-0.197-1.721-0.195-0.556-0.428-0.988-0.697-1.297v0c-0.333-0.381-0.718-0.603-1.155-0.667-0.436-0.073-0.845 0.057-1.225 0.39v0c-0.294 0.256-0.523 0.648-0.69 1.175-0.171 0.522-0.168 1.164 0.008 1.926 0.172 0.758 0.619 1.634 1.342 2.628v0c0.741-0.212 1.318-0.498 1.73-0.858z" fill="#000000" data-fill-palette-color="accent"></path><path d="M74.732 28.36v0c-0.704 0.334-1.486 0.401-2.344 0.203-0.858-0.199-1.703-0.68-2.534-1.444-0.831-0.764-1.566-1.819-2.204-3.166v0c-0.653-1.378-1.039-2.704-1.159-3.98-0.12-1.275-0.04-2.44 0.239-3.495 0.283-1.065 0.71-1.975 1.283-2.73 0.573-0.756 1.224-1.306 1.953-1.652v0c0.809-0.384 1.648-0.474 2.515-0.272 0.87 0.208 1.678 0.786 2.422 1.735v0c-0.289-1.074-0.584-2.088-0.885-3.043-0.295-0.957-0.606-1.782-0.934-2.474v0c-0.43-0.908-0.861-1.514-1.292-1.817v0l-0.083-0.176c0.208-0.727 0.525-1.342 0.952-1.847 0.427-0.505 0.887-0.874 1.381-1.108v0c0.649-0.307 1.298-0.366 1.949-0.175 0.641 0.188 1.139 0.656 1.494 1.404v0c0.196 0.414 0.418 1.058 0.665 1.932 0.241 0.877 0.509 1.881 0.804 3.013 0.294 1.132 0.598 2.293 0.912 3.483 0.308 1.193 0.63 2.32 0.966 3.379 0.338 1.065 0.68 1.963 1.025 2.692v0c0.29 0.612 0.583 1.071 0.88 1.376 0.302 0.303 0.602 0.384 0.898 0.244v0c0.216-0.102 0.404-0.282 0.562-0.539 0.158-0.257 0.228-0.501 0.209-0.734v0l0.283 0.048c0.31 0.655 0.386 1.349 0.227 2.083-0.156 0.74-0.474 1.428-0.953 2.062-0.469 0.638-1.038 1.116-1.705 1.432v0c-0.729 0.345-1.404 0.415-2.023 0.21-0.617-0.2-1.164-0.572-1.641-1.118-0.475-0.554-0.882-1.16-1.224-1.815v0c0.062 1.711-0.159 3.09-0.661 4.138-0.509 1.051-1.168 1.768-1.977 2.151zM74.933 23.657v0c0.513-0.243 0.868-0.979 1.065-2.207 0.191-1.226 0.104-2.838-0.26-4.836v0l-0.259-1.001c-0.664-0.586-1.249-0.944-1.757-1.075-0.517-0.133-0.943-0.121-1.276 0.038v0c-0.494 0.234-0.829 0.726-1.004 1.474-0.175 0.749-0.196 1.606-0.064 2.573 0.132 0.966 0.418 1.913 0.858 2.839v0c0.419 0.884 0.875 1.519 1.368 1.906 0.497 0.378 0.94 0.474 1.329 0.289z" fill="#000000" data-fill-palette-color="accent"></path><path d="M101.402 19.166v0c-0.781 0.093-1.518-0.143-2.212-0.708-0.695-0.571-1.109-1.421-1.244-2.547v0c-0.067-0.564-0.069-1.217-0.006-1.962 0.063-0.744 0.144-1.505 0.244-2.281 0.093-0.782 0.174-1.518 0.243-2.209 0.069-0.69 0.077-1.262 0.022-1.717v0c-0.045-0.373-0.165-0.662-0.361-0.866-0.204-0.21-0.445-0.298-0.724-0.265v0c-0.367 0.044-0.741 0.309-1.124 0.795v0l-0.219-0.108c-0.062-0.344-0.033-0.764 0.087-1.26 0.113-0.496 0.34-0.991 0.68-1.486 0.334-0.487 0.799-0.922 1.395-1.302 0.595-0.381 1.324-0.623 2.185-0.726v0c0.978-0.117 1.752 0.139 2.323 0.767 0.571 0.627 0.913 1.417 1.026 2.367v0c0.013 0.109 0.027 0.224 0.041 0.346 0.014 0.115 0.017 0.229 0.01 0.34v0c0.327-0.721 0.732-1.427 1.214-2.118 0.475-0.697 1.04-1.298 1.696-1.803 0.655-0.512 1.393-0.817 2.215-0.915v0c1.066-0.127 1.844 0.128 2.333 0.765 0.496 0.636 0.795 1.386 0.898 2.248v0c0.021 0.177 0.034 0.347 0.04 0.512 0.013 0.164 0.018 0.322 0.015 0.473v0c0.375-0.726 0.798-1.452 1.269-2.176 0.471-0.731 1.04-1.36 1.707-1.887 0.659-0.533 1.458-0.856 2.395-0.967v0c1.147-0.137 1.972 0.106 2.473 0.728 0.501 0.622 0.806 1.391 0.915 2.308v0c0.096 0.801 0.109 1.726 0.042 2.773-0.074 1.056-0.15 2.094-0.228 3.116-0.078 1.022-0.076 1.879 0.007 2.571v0c0.049 0.414 0.151 0.743 0.303 0.987 0.153 0.243 0.369 0.349 0.647 0.315v0c0.238-0.028 0.454-0.123 0.648-0.284 0.187-0.167 0.312-0.354 0.378-0.561v0l0.266 0.071c0.096 0.801-0.048 1.531-0.431 2.19-0.382 0.665-0.9 1.206-1.552 1.621-0.652 0.422-1.328 0.675-2.027 0.758v0c-0.842 0.1-1.616-0.093-2.321-0.581-0.712-0.487-1.146-1.382-1.302-2.685v0c-0.096-0.801-0.093-1.679 0.006-2.635 0.092-0.961 0.188-1.892 0.287-2.792 0.106-0.901 0.126-1.633 0.059-2.197v0c-0.096-0.808-0.426-1.178-0.99-1.111v0c-0.414 0.049-0.801 0.268-1.162 0.655-0.361 0.38-0.664 0.868-0.91 1.461-0.254 0.588-0.439 1.199-0.556 1.833-0.125 0.628-0.154 1.223-0.087 1.787v0c0.062 0.523 0.188 1.086 0.377 1.69 0.196 0.603 0.327 1.187 0.395 1.751v0c0.134 1.127-0.078 2.03-0.638 2.71-0.552 0.686-1.252 1.079-2.1 1.18v0c-0.781 0.093-1.511-0.085-2.192-0.534-0.68-0.449-1.082-1.193-1.206-2.232v0c-0.057-0.475-0.061-1.063-0.014-1.765 0.055-0.695 0.116-1.425 0.183-2.191 0.073-0.773 0.136-1.514 0.19-2.223 0.046-0.708 0.038-1.323-0.024-1.846v0c-0.049-0.407-0.148-0.723-0.299-0.945-0.145-0.231-0.39-0.325-0.736-0.285v0c-0.502 0.06-0.951 0.368-1.346 0.925-0.396 0.55-0.715 1.197-0.957 1.943-0.242 0.745-0.378 1.45-0.409 2.114v0c-0.003 0.152-0.005 0.273-0.008 0.363 0.004 0.089 0.006 0.134 0.005 0.133v0c0.08 0.672 0.228 1.274 0.443 1.807 0.215 0.532 0.358 1.094 0.428 1.684v0c0.126 1.059-0.088 1.98-0.642 2.762-0.554 0.782-1.242 1.222-2.063 1.321z" fill="#000000" data-fill-palette-color="accent"></path><path d="M142.444 19v0c-1.564-0.304-2.798-0.871-3.702-1.702-0.904-0.831-1.514-1.816-1.829-2.958-0.315-1.141-0.355-2.312-0.121-3.513v0c0.221-1.134 0.664-2.232 1.33-3.294 0.659-1.063 1.507-1.981 2.542-2.755 1.03-0.782 2.205-1.344 3.525-1.687 1.327-0.341 2.749-0.364 4.266-0.069v0c1.886 0.367 3.183 1.058 3.892 2.073 0.701 1.014 0.935 2.122 0.701 3.324v0c-0.2 1.027-0.656 1.924-1.369 2.69-0.719 0.759-1.579 1.313-2.58 1.662-1.001 0.349-2.039 0.419-3.113 0.209v0c-0.557-0.108-1.108-0.302-1.652-0.582-0.543-0.287-1.058-0.666-1.545-1.136v0c-0.151 1.35 0.048 2.388 0.596 3.114 0.547 0.733 1.28 1.189 2.2 1.368v0c0.644 0.125 1.313 0.126 2.005 0.004 0.686-0.124 1.343-0.331 1.97-0.62 0.621-0.29 1.126-0.631 1.515-1.022v0l0.19 0.204c-0.217 1.114-0.63 2.02-1.238 2.716-0.615 0.689-1.346 1.208-2.194 1.559-0.847 0.344-1.736 0.544-2.667 0.599-0.936 0.048-1.843-0.014-2.722-0.184zM144.876 10.466v0c0.685 0.133 1.28 0.043 1.787-0.269 0.507-0.312 0.919-0.716 1.239-1.212 0.319-0.495 0.518-0.944 0.596-1.347v0c0.097-0.497 0.036-0.937-0.182-1.32-0.21-0.389-0.563-0.632-1.06-0.729v0c-0.383-0.074-0.833-0.016-1.351 0.176-0.517 0.185-1.022 0.581-1.516 1.189-0.493 0.601-0.91 1.491-1.251 2.672v0c0.622 0.455 1.201 0.735 1.738 0.84z" fill="#000000" data-fill-palette-color="accent"></path><path d="M165.881 26.455v0c-0.719-0.365-1.225-0.986-1.516-1.862-0.288-0.867-0.171-1.816 0.352-2.847v0c0.257-0.506 0.617-1.048 1.079-1.626 0.459-0.572 0.941-1.144 1.446-1.716 0.502-0.581 0.969-1.13 1.4-1.647 0.431-0.517 0.74-0.959 0.926-1.325v0c0.198-0.39 0.278-0.737 0.24-1.039-0.044-0.306-0.191-0.523-0.441-0.65v0c-0.335-0.17-0.794-0.158-1.376 0.037v0l-0.123-0.211c0.14-0.32 0.397-0.653 0.773-1 0.369-0.349 0.817-0.643 1.344-0.882 0.524-0.232 1.109-0.357 1.755-0.374 0.645-0.017 1.319 0.152 2.02 0.508v0c1.03 0.523 1.641 1.209 1.831 2.057 0.2 0.845 0.081 1.698-0.355 2.557v0c-0.158 0.311-0.342 0.597-0.551 0.859v0c0.715-0.396 1.531-0.749 2.447-1.058 0.913-0.303 1.841-0.476 2.783-0.52 0.939-0.037 1.799 0.143 2.579 0.539v0c0.915 0.464 1.388 1.073 1.42 1.825 0.032 0.752-0.175 1.568-0.621 2.446v0c-0.415 0.817-0.944 1.649-1.589 2.494-0.65 0.843-1.285 1.656-1.904 2.438-0.616 0.776-1.073 1.457-1.371 2.042v0c-0.393 0.774-0.364 1.276 0.087 1.505v0c0.232 0.118 0.473 0.148 0.725 0.092 0.251-0.057 0.438-0.138 0.561-0.244v0l0.164 0.198c-0.365 0.719-0.887 1.248-1.565 1.587-0.675 0.348-1.39 0.517-2.145 0.509-0.758-0.002-1.452-0.162-2.08-0.48v0c-0.756-0.384-1.292-0.99-1.608-1.818-0.319-0.822-0.177-1.827 0.427-3.015v0c0.356-0.701 0.836-1.412 1.439-2.133 0.598-0.724 1.177-1.419 1.738-2.086 0.558-0.675 0.96-1.257 1.208-1.745v0c0.149-0.293 0.213-0.548 0.193-0.765-0.026-0.22-0.173-0.399-0.442-0.535v0c-0.451-0.229-1.049-0.276-1.793-0.139-0.744 0.136-1.478 0.45-2.203 0.941-0.725 0.491-1.294 1.145-1.709 1.961v0c-0.266 0.524-0.459 1.063-0.579 1.616-0.126 0.55-0.331 1.105-0.615 1.666v0c-0.536 1.055-1.212 1.716-2.031 1.983-0.821 0.273-1.595 0.226-2.32-0.143z" fill="#000000" data-fill-palette-color="accent"></path><path d="M191.88 43.337v0c-0.521-0.464-0.907-1.022-1.159-1.676-0.256-0.649-0.302-1.353-0.138-2.113 0.164-0.76 0.593-1.531 1.288-2.313v0c0.377-0.424 0.911-0.942 1.602-1.554 0.691-0.612 1.469-1.265 2.334-1.96 0.87-0.69 1.738-1.378 2.603-2.063v0c-0.341-0.276-0.682-0.524-1.024-0.746-0.347-0.217-0.695-0.422-1.046-0.615v0l0.103-0.224c0.672-0.097 1.312-0.128 1.92-0.09 0.608 0.047 1.186 0.153 1.733 0.319v0c1.173-0.887 2.186-1.661 3.039-2.321 0.847-0.665 1.335-1.069 1.462-1.211v0c0.25-0.281 0.672-0.318 1.265-0.111 0.593 0.207 1.158 0.55 1.695 1.027v0c0.475 0.423 0.84 0.907 1.095 1.455 0.26 0.551 0.273 1.103 0.039 1.654v0c-0.188 0.016-0.651 0.258-1.389 0.728-0.733 0.464-1.597 1.06-2.591 1.786v0c0.293 0.288 0.596 0.585 0.91 0.891 0.309 0.311 0.621 0.634 0.936 0.97v0c-0.056 0.124-0.126 0.254-0.21 0.39-0.085 0.126-0.184 0.253-0.298 0.38v0c-0.218 0.245-0.493 0.477-0.823 0.695-0.326 0.223-0.64 0.406-0.942 0.549v0c-0.362-0.386-0.698-0.749-1.008-1.089-0.306-0.345-0.613-0.674-0.922-0.984v0c-0.755 0.591-1.497 1.189-2.227 1.794-0.73 0.605-1.377 1.168-1.943 1.69-0.565 0.522-0.993 0.947-1.284 1.274v0c-0.609 0.685-0.89 1.253-0.844 1.705 0.056 0.452 0.262 0.837 0.619 1.156v0c0.327 0.291 0.678 0.488 1.052 0.592 0.379 0.099 0.704 0.109 0.975 0.03v0l0.178 0.295c-0.692 0.583-1.471 0.934-2.336 1.052-0.865 0.118-1.712 0.052-2.54-0.2-0.828-0.252-1.536-0.639-2.124-1.162z" fill="#000000" data-fill-palette-color="accent"></path><path d="M208.28 62.339v0c-0.927-1.354-1.423-2.655-1.489-3.902-0.06-1.251 0.208-2.396 0.807-3.435 0.602-1.033 1.408-1.895 2.418-2.587v0c0.959-0.656 2.038-1.133 3.235-1.429 1.193-0.303 2.414-0.384 3.661-0.243 1.244 0.135 2.44 0.527 3.588 1.174 1.138 0.646 2.14 1.602 3.004 2.866v0c0.923 1.349 1.41 2.648 1.46 3.897 0.045 1.253-0.236 2.398-0.843 3.436-0.613 1.041-1.434 1.913-2.461 2.615v0c-0.937 0.641-1.995 1.116-3.175 1.426-1.178 0.3-2.391 0.38-3.639 0.24-1.248-0.141-2.438-0.536-3.57-1.186-1.132-0.65-2.131-1.608-2.996-2.872zM211.072 61.498v0c0.332 0.485 0.864 0.718 1.596 0.698 0.722-0.022 1.532-0.219 2.428-0.593 0.896-0.373 1.748-0.835 2.555-1.387v0c0.722-0.494 1.359-1.029 1.91-1.605 0.545-0.572 0.928-1.132 1.149-1.681 0.221-0.549 0.185-1.038-0.108-1.466v0c-0.32-0.468-0.85-0.698-1.59-0.69-0.73 0.011-1.536 0.201-2.417 0.573-0.891 0.369-1.751 0.837-2.581 1.405v0c-0.717 0.49-1.35 1.023-1.901 1.598-0.545 0.572-0.928 1.132-1.149 1.681-0.221 0.549-0.185 1.038 0.108 1.467z" fill="#000000" data-fill-palette-color="accent"></path><path d="M220.417 85.377v0c-0.254-0.744-0.175-1.508 0.238-2.292 0.418-0.786 1.184-1.368 2.297-1.747v0c0.537-0.183 1.17-0.33 1.898-0.442 0.721-0.109 1.467-0.2 2.236-0.274 0.767-0.081 1.489-0.168 2.165-0.262 0.67-0.091 1.212-0.207 1.626-0.348v0c0.434-0.148 0.753-0.344 0.959-0.587 0.206-0.244 0.267-0.488 0.183-0.735v0c-0.135-0.395-0.54-0.704-1.216-0.929v0l0.06-0.237c0.323-0.132 0.74-0.191 1.251-0.177 0.508 0.007 1.037 0.116 1.585 0.326 0.54 0.206 1.049 0.534 1.528 0.986 0.477 0.444 0.842 1.039 1.095 1.783v0c0.373 1.094 0.327 1.998-0.137 2.712-0.458 0.712-1.133 1.221-2.026 1.525v0c-0.142 0.049-0.293 0.093-0.454 0.133-0.158 0.046-0.312 0.081-0.463 0.104v0c1.593 0.287 2.888 0.716 3.885 1.287 0.992 0.579 1.607 1.218 1.846 1.917v0c0.225 0.66 0.132 1.234-0.28 1.721-0.412 0.487-0.98 0.854-1.705 1.102v0c-0.66 0.225-1.374 0.324-2.142 0.297-0.774-0.025-1.468-0.215-2.08-0.57-0.619-0.353-1.042-0.895-1.27-1.626v0l0.025-0.149c0.531-0.203 0.895-0.522 1.093-0.958 0.192-0.434 0.217-0.858 0.076-1.272v0c-0.19-0.557-0.646-0.983-1.368-1.278-0.722-0.296-1.611-0.264-2.665 0.096v0c-0.641 0.218-1.309 0.526-2.005 0.922-0.696 0.396-1.302 0.683-1.82 0.859v0c-0.615 0.21-1.23 0.26-1.845 0.152-0.617-0.115-1.152-0.348-1.604-0.7-0.461-0.356-0.783-0.802-0.966-1.339z" fill="#000000" data-fill-palette-color="accent"></path><path d="M6.491 160.275v0c-0.411-1.24-0.58-2.325-0.507-3.258 0.064-0.936 0.297-1.69 0.698-2.263 0.392-0.577 0.858-0.954 1.396-1.132v0c0.759-0.252 1.547-0.135 2.364 0.35 0.817 0.486 1.416 1.306 1.8 2.462v0c-1.019 0.338-1.791 0.738-2.315 1.199-0.524 0.462-0.847 0.944-0.969 1.445-0.124 0.495-0.124 0.931 0.001 1.308v0c0.153 0.461 0.417 0.802 0.793 1.023 0.367 0.217 0.752 0.259 1.155 0.125v0c0.558-0.185 0.952-0.636 1.182-1.354 0.224-0.715 0.443-1.62 0.657-2.714v0c0.133-0.555 0.295-1.164 0.486-1.825 0.191-0.661 0.488-1.267 0.889-1.818 0.405-0.559 0.978-0.962 1.717-1.207v0c0.779-0.258 1.541-0.262 2.287-0.013 0.754 0.254 1.458 0.684 2.113 1.288 0.652 0.598 1.225 1.294 1.718 2.089 0.498 0.786 0.884 1.591 1.158 2.415v0c0.51 1.538 0.582 2.8 0.217 3.785-0.358 0.983-0.888 1.591-1.589 1.824v0c-0.604 0.2-1.241 0.08-1.913-0.36-0.68-0.444-1.226-1.286-1.637-2.526v0c1.025-0.318 1.7-0.772 2.023-1.363 0.321-0.596 0.399-1.144 0.233-1.644v0c-0.12-0.363-0.328-0.63-0.622-0.799-0.3-0.167-0.661-0.181-1.083-0.04v0c-0.48 0.159-0.844 0.453-1.091 0.88-0.247 0.428-0.426 0.919-0.538 1.475-0.116 0.564-0.211 1.136-0.285 1.715v0c-0.094 0.78-0.223 1.533-0.386 2.257-0.159 0.715-0.405 1.341-0.739 1.877-0.336 0.529-0.832 0.902-1.488 1.12v0c-0.902 0.299-1.857 0.212-2.863-0.261-1.015-0.477-1.958-1.245-2.828-2.305-0.878-1.063-1.556-2.315-2.034-3.756z" fill="#000000" data-fill-palette-color="accent"></path><path d="M20.955 190.028v0c-0.848-1.284-1.292-2.519-1.331-3.707-0.039-1.187 0.23-2.275 0.807-3.262 0.571-0.984 1.347-1.8 2.329-2.449v0c0.936-0.618 1.99-1.057 3.163-1.315 1.179-0.263 2.386-0.302 3.621-0.119 1.23 0.187 2.41 0.62 3.54 1.3 1.129 0.68 2.105 1.641 2.927 2.885v0c1.022 1.546 1.423 2.904 1.203 4.073-0.225 1.173-0.828 2.084-1.808 2.732v0c-0.844 0.558-1.772 0.847-2.783 0.868-1.007 0.026-1.968-0.187-2.882-0.641-0.924-0.455-1.676-1.122-2.256-2v0c-0.302-0.456-0.538-0.968-0.708-1.536-0.17-0.568-0.258-1.178-0.263-1.831v0c-1.033 0.806-1.614 1.644-1.743 2.517-0.132 0.866 0.05 1.676 0.548 2.428v0c0.351 0.531 0.799 0.992 1.346 1.386 0.556 0.395 1.141 0.709 1.754 0.943 0.623 0.236 1.201 0.354 1.734 0.354v0l-0.01 0.264c-0.913 0.603-1.816 0.93-2.709 0.979-0.888 0.046-1.738-0.106-2.55-0.454-0.812-0.348-1.549-0.825-2.21-1.428-0.671-0.606-1.244-1.268-1.719-1.987zM28.47 185.922v0c0.373 0.565 0.837 0.914 1.393 1.047 0.559 0.139 1.116 0.151 1.672 0.038 0.556-0.113 1-0.279 1.331-0.498v0c0.405-0.268 0.669-0.606 0.792-1.016 0.123-0.409 0.051-0.816-0.217-1.221v0c-0.211-0.319-0.555-0.592-1.032-0.818-0.477-0.226-1.09-0.304-1.84-0.235-0.753 0.063-1.651 0.378-2.695 0.945v0c0.107 0.732 0.306 1.318 0.596 1.758z" fill="#000000" data-fill-palette-color="accent"></path><path d="M42.399 214.459v0c-1.158-1.013-1.913-2.086-2.266-3.221-0.352-1.135-0.381-2.254-0.087-3.359 0.29-1.1 0.822-2.093 1.596-2.979v0c0.738-0.844 1.638-1.547 2.701-2.107 1.067-0.566 2.22-0.924 3.461-1.075 1.236-0.146 2.488-0.041 3.757 0.315 1.269 0.356 2.465 1.025 3.587 2.006v0c1.395 1.22 2.142 2.422 2.241 3.608 0.094 1.191-0.246 2.229-1.02 3.114v0c-0.666 0.762-1.484 1.287-2.453 1.575-0.964 0.292-1.947 0.341-2.949 0.146-1.011-0.194-1.913-0.637-2.706-1.33v0c-0.412-0.36-0.775-0.791-1.089-1.294-0.315-0.502-0.561-1.067-0.739-1.695v0c-0.782 1.051-1.12 2.013-1.013 2.888 0.102 0.87 0.493 1.602 1.172 2.197v0c0.479 0.419 1.034 0.745 1.665 0.979 0.641 0.233 1.288 0.381 1.941 0.444 0.663 0.062 1.252 0.023 1.766-0.119v0l0.061 0.258c-0.72 0.824-1.504 1.378-2.353 1.662-0.844 0.279-1.704 0.359-2.579 0.239-0.875-0.121-1.712-0.384-2.51-0.792-0.807-0.406-1.535-0.893-2.184-1.46zM48.557 208.508v0c0.51 0.446 1.05 0.659 1.62 0.64 0.576-0.014 1.117-0.15 1.623-0.407 0.506-0.257 0.89-0.535 1.151-0.833v0c0.32-0.365 0.484-0.762 0.494-1.189 0.01-0.427-0.168-0.8-0.533-1.12v0c-0.288-0.252-0.692-0.424-1.212-0.515-0.52-0.091-1.132-0.004-1.836 0.261-0.709 0.261-1.492 0.803-2.348 1.626v0c0.297 0.678 0.644 1.19 1.041 1.537z" fill="#000000" data-fill-palette-color="accent"></path><path d="M67.625 231.236v0c-0.686-0.325-1.216-0.867-1.59-1.627-0.374-0.76-0.531-1.682-0.471-2.766 0.062-1.09 0.401-2.284 1.015-3.582v0c0.629-1.329 1.381-2.429 2.256-3.301 0.878-0.863 1.8-1.516 2.766-1.958 0.963-0.437 1.903-0.672 2.82-0.707 0.908-0.032 1.714 0.119 2.418 0.453v0c0.785 0.372 1.366 0.942 1.744 1.711 0.381 0.778 0.442 1.734 0.185 2.868v0c0.618-0.873 1.193-1.712 1.726-2.519 0.533-0.807 0.958-1.544 1.274-2.211v0c0.416-0.878 0.603-1.568 0.562-2.072v0l0.083-0.176c0.673-0.287 1.328-0.423 1.964-0.409 0.639 0.008 1.197 0.124 1.673 0.35v0c0.624 0.296 1.063 0.742 1.318 1.339 0.254 0.597 0.21 1.257-0.132 1.98v0c-0.19 0.402-0.538 0.96-1.043 1.674-0.501 0.723-1.084 1.537-1.746 2.441-0.666 0.91-1.348 1.847-2.046 2.811-0.704 0.96-1.348 1.888-1.932 2.784-0.593 0.9-1.056 1.702-1.389 2.407v0c-0.278 0.587-0.439 1.086-0.482 1.496-0.043 0.411 0.08 0.685 0.371 0.823v0c0.204 0.097 0.451 0.127 0.74 0.09 0.284-0.04 0.511-0.136 0.682-0.29v0l0.125 0.24c-0.296 0.624-0.769 1.104-1.419 1.439-0.644 0.338-1.348 0.523-2.113 0.554-0.758 0.035-1.461-0.102-2.11-0.409v0c-0.704-0.334-1.168-0.792-1.392-1.374-0.223-0.583-0.278-1.218-0.164-1.905 0.117-0.694 0.319-1.369 0.608-2.027v0c-1.237 1.094-2.401 1.772-3.494 2.033-1.092 0.262-2.028 0.208-2.807-0.16zM71.252 228.516v0c0.494 0.234 1.26 0.048 2.295-0.558 1.027-0.603 2.175-1.652 3.443-3.148v0l0.598-0.806c0.025-0.851-0.069-1.508-0.281-1.972-0.215-0.457-0.483-0.762-0.804-0.914v0c-0.476-0.225-1.047-0.178-1.713 0.142-0.663 0.329-1.316 0.837-1.959 1.524-0.643 0.687-1.177 1.478-1.601 2.374v0c-0.404 0.853-0.598 1.582-0.582 2.187 0.025 0.602 0.226 0.992 0.604 1.171z" fill="#000000" data-fill-palette-color="accent"></path><path d="M99.583 241.923v0c-0.754-0.091-1.392-0.481-1.916-1.171-0.517-0.682-0.71-1.569-0.578-2.662v0c0.065-0.543 0.211-1.156 0.438-1.838 0.233-0.681 0.482-1.378 0.747-2.09 0.265-0.712 0.51-1.381 0.737-2.008 0.22-0.628 0.357-1.162 0.41-1.604v0c0.042-0.353-0.004-0.651-0.141-0.895-0.144-0.238-0.351-0.373-0.623-0.406v0c-0.353-0.042-0.765 0.118-1.235 0.482v0l-0.179-0.145c0.02-0.335 0.142-0.723 0.367-1.165 0.225-0.441 0.55-0.853 0.975-1.236 0.425-0.383 0.96-0.683 1.607-0.902 0.639-0.219 1.376-0.279 2.211-0.178v0c0.944 0.113 1.61 0.528 2 1.242 0.389 0.715 0.529 1.53 0.418 2.447v0c-0.013 0.109-0.027 0.221-0.04 0.336-0.014 0.115-0.037 0.223-0.07 0.322v0c0.478-0.597 1.019-1.169 1.622-1.716 0.609-0.54 1.277-0.973 2.005-1.298 0.728-0.326 1.489-0.441 2.283-0.346v0c1.025 0.123 1.698 0.538 2.02 1.245 0.315 0.706 0.422 1.476 0.321 2.312v0c-0.02 0.17-0.043 0.332-0.069 0.487-0.032 0.155-0.067 0.302-0.104 0.442v0c0.519-0.592 1.081-1.175 1.687-1.75 0.613-0.574 1.288-1.033 2.025-1.378 0.744-0.344 1.564-0.463 2.46-0.355v0c1.113 0.134 1.835 0.548 2.165 1.241 0.329 0.701 0.441 1.489 0.336 2.365v0c-0.093 0.774-0.294 1.645-0.604 2.614-0.31 0.975-0.614 1.93-0.912 2.865-0.306 0.941-0.499 1.748-0.58 2.42v0c-0.047 0.394-0.028 0.723 0.056 0.988 0.085 0.265 0.264 0.414 0.536 0.447v0c0.231 0.028 0.453-0.014 0.666-0.127 0.213-0.112 0.372-0.258 0.476-0.438v0l0.244 0.122c-0.093 0.774-0.396 1.43-0.908 1.967-0.505 0.532-1.113 0.92-1.824 1.165-0.704 0.239-1.392 0.318-2.064 0.238v0c-0.815-0.098-1.498-0.456-2.051-1.073-0.553-0.617-0.753-1.554-0.602-2.81v0c0.093-0.774 0.295-1.597 0.607-2.469 0.305-0.872 0.606-1.721 0.905-2.546 0.299-0.825 0.481-1.509 0.546-2.052v0c0.093-0.774-0.132-1.194-0.675-1.259v0c-0.394-0.047-0.804 0.069-1.23 0.348-0.426 0.279-0.824 0.665-1.193 1.159-0.37 0.5-0.682 1.03-0.935 1.592-0.26 0.561-0.423 1.113-0.488 1.656v0c-0.06 0.502-0.069 1.059-0.026 1.67 0.044 0.611 0.033 1.188-0.032 1.732v0c-0.131 1.086-0.533 1.885-1.208 2.396-0.681 0.51-1.429 0.717-2.243 0.619v0c-0.754-0.091-1.395-0.423-1.926-0.996-0.537-0.574-0.746-1.36-0.626-2.358v0c0.055-0.462 0.184-1.014 0.386-1.658 0.208-0.643 0.434-1.315 0.676-2.016 0.243-0.708 0.466-1.387 0.668-2.038 0.21-0.657 0.345-1.236 0.405-1.738v0c0.047-0.394 0.027-0.713-0.06-0.958-0.088-0.245-0.298-0.387-0.631-0.427v0c-0.482-0.058-0.973 0.128-1.471 0.557-0.492 0.43-0.939 0.965-1.34 1.605-0.394 0.641-0.679 1.268-0.856 1.881v0c-0.038 0.147-0.069 0.26-0.093 0.34-0.017 0.087-0.026 0.131-0.026 0.131v0c-0.078 0.645-0.077 1.244 0.001 1.798 0.086 0.547 0.095 1.103 0.027 1.666v0c-0.123 1.025-0.535 1.84-1.234 2.445-0.699 0.605-1.446 0.859-2.24 0.764z" fill="#000000" data-fill-palette-color="accent"></path><path d="M145.504 242.079v0c-1.511 0.291-2.822 0.227-3.933-0.192-1.111-0.419-2.013-1.085-2.704-1.997-0.69-0.905-1.146-1.934-1.368-3.089v0c-0.212-1.101-0.213-2.243-0.002-3.425 0.209-1.189 0.636-2.32 1.279-3.391 0.644-1.064 1.497-1.988 2.558-2.77 1.061-0.782 2.323-1.315 3.787-1.597v0c1.82-0.351 3.227-0.201 4.223 0.45 0.997 0.657 1.607 1.564 1.829 2.718v0c0.192 0.994 0.103 1.961-0.265 2.903-0.362 0.94-0.927 1.746-1.697 2.416-0.774 0.678-1.679 1.117-2.713 1.317v0c-0.537 0.104-1.101 0.125-1.69 0.065-0.59-0.06-1.187-0.213-1.791-0.46v0c0.348 1.263 0.9 2.121 1.656 2.575 0.749 0.454 1.567 0.596 2.453 0.425v0c0.624-0.12 1.223-0.358 1.795-0.711 0.578-0.362 1.092-0.782 1.544-1.259 0.457-0.485 0.787-0.973 0.992-1.465v0l0.24 0.11c0.207 1.074 0.162 2.033-0.135 2.878-0.298 0.837-0.764 1.564-1.397 2.18-0.633 0.616-1.356 1.114-2.167 1.494-0.817 0.387-1.648 0.662-2.494 0.825zM144.594 233.564v0c0.665-0.128 1.165-0.423 1.501-0.885 0.343-0.463 0.568-0.973 0.677-1.53 0.109-0.557 0.125-1.03 0.05-1.419v0c-0.092-0.477-0.303-0.85-0.634-1.121-0.331-0.271-0.734-0.36-1.211-0.268v0c-0.376 0.072-0.76 0.286-1.151 0.639-0.391 0.354-0.699 0.89-0.923 1.609-0.23 0.72-0.284 1.67-0.16 2.851v0c0.718 0.182 1.335 0.223 1.851 0.124z" fill="#000000" data-fill-palette-color="accent"></path><path d="M173.506 232.816v0c-0.695 0.352-1.467 0.394-2.315 0.126-0.839-0.265-1.512-0.898-2.019-1.898v0c-0.247-0.488-0.459-1.074-0.637-1.759-0.187-0.687-0.363-1.391-0.529-2.112-0.163-0.715-0.32-1.39-0.473-2.025-0.15-0.629-0.316-1.124-0.498-1.483v0c-0.188-0.372-0.414-0.629-0.679-0.772-0.261-0.136-0.513-0.143-0.756-0.019v0c-0.317 0.161-0.571 0.523-0.761 1.086v0l-0.22-0.026c-0.17-0.29-0.286-0.679-0.35-1.168-0.057-0.492-0.028-1.009 0.088-1.551 0.117-0.542 0.352-1.067 0.708-1.577 0.355-0.509 0.871-0.935 1.549-1.278v0c0.994-0.503 1.875-0.589 2.641-0.257 0.772 0.329 1.367 0.906 1.783 1.73v0c0.151 0.299 0.272 0.606 0.363 0.92v0c0.094-0.783 0.284-1.619 0.57-2.507 0.28-0.885 0.675-1.702 1.185-2.451 0.501-0.752 1.126-1.317 1.877-1.697v0c0.885-0.448 1.631-0.473 2.238-0.076 0.604 0.407 1.12 1.031 1.546 1.873v0c0.401 0.793 0.744 1.681 1.027 2.665 0.292 0.986 0.565 1.941 0.817 2.863 0.252 0.922 0.522 1.667 0.809 2.234v0c0.38 0.75 0.786 1.016 1.219 0.797v0c0.226-0.114 0.388-0.285 0.489-0.512 0.094-0.224 0.137-0.418 0.13-0.583v0l0.234-0.015c0.352 0.695 0.47 1.406 0.354 2.131-0.119 0.719-0.397 1.373-0.834 1.963-0.434 0.58-0.954 1.023-1.558 1.329v0c-0.732 0.371-1.507 0.445-2.324 0.223-0.824-0.219-1.526-0.902-2.107-2.05v0c-0.343-0.677-0.622-1.456-0.837-2.335-0.221-0.877-0.434-1.727-0.636-2.552-0.206-0.815-0.428-1.458-0.666-1.927v0c-0.142-0.281-0.305-0.474-0.489-0.581-0.178-0.109-0.401-0.096-0.669 0.04v0c-0.427 0.216-0.801 0.651-1.122 1.304-0.318 0.659-0.493 1.411-0.526 2.255-0.033 0.844 0.15 1.66 0.549 2.447v0c0.256 0.506 0.564 0.964 0.924 1.371 0.36 0.408 0.677 0.883 0.952 1.427v0c0.516 1.019 0.644 1.923 0.385 2.713-0.259 0.79-0.736 1.361-1.432 1.714z" fill="#000000" data-fill-palette-color="accent"></path><path d="M203.1 213.54v0c-0.506 0.45-1.083 0.762-1.733 0.938-0.649 0.165-1.327 0.128-2.035-0.112-0.712-0.245-1.405-0.746-2.077-1.502v0c-0.364-0.409-0.8-0.977-1.31-1.704-0.509-0.737-1.047-1.558-1.614-2.463-0.562-0.9-1.122-1.807-1.679-2.721v0c-0.303 0.297-0.58 0.598-0.83 0.904-0.25 0.305-0.489 0.613-0.716 0.924v0l-0.189-0.12c-0.025-0.655 0.019-1.27 0.13-1.845 0.107-0.58 0.272-1.125 0.495-1.635v0c-0.718-1.219-1.347-2.27-1.886-3.154-0.539-0.894-0.869-1.409-0.992-1.547v0c-0.241-0.271-0.229-0.679 0.036-1.226 0.264-0.537 0.656-1.037 1.177-1.5v0c0.455-0.404 0.959-0.702 1.513-0.893 0.553-0.181 1.083-0.13 1.589 0.151v0c-0.006 0.179 0.173 0.647 0.535 1.405 0.367 0.762 0.84 1.66 1.42 2.691v0c0.31-0.248 0.632-0.503 0.967-0.764 0.325-0.262 0.668-0.525 1.027-0.79v0c0.112 0.065 0.226 0.146 0.341 0.245 0.111 0.094 0.223 0.204 0.337 0.332v0c0.209 0.235 0.403 0.52 0.582 0.855 0.174 0.34 0.31 0.662 0.408 0.968v0c-0.405 0.306-0.79 0.583-1.153 0.834-0.364 0.26-0.713 0.52-1.048 0.781v0c0.482 0.789 0.972 1.566 1.469 2.331 0.502 0.77 0.971 1.456 1.406 2.058 0.43 0.597 0.786 1.053 1.067 1.37v0c0.586 0.659 1.1 0.989 1.541 0.991 0.441 0.002 0.832-0.15 1.174-0.454v0c0.317-0.282 0.546-0.595 0.687-0.941 0.142-0.355 0.189-0.667 0.142-0.936v0l0.306-0.135c0.476 0.73 0.723 1.517 0.741 2.361 0.018 0.844-0.14 1.648-0.476 2.413-0.335 0.755-0.786 1.385-1.352 1.89z" fill="#000000" data-fill-palette-color="accent"></path><path d="M222.503 191.393v0c-0.889 1.305-1.888 2.206-2.995 2.701-1.101 0.499-2.223 0.657-3.364 0.475-1.14-0.173-2.199-0.592-3.177-1.258v0c-0.921-0.628-1.727-1.425-2.416-2.391-0.69-0.967-1.19-2.036-1.501-3.208-0.314-1.166-0.382-2.378-0.202-3.637 0.181-1.25 0.686-2.482 1.513-3.697v0c0.889-1.305 1.888-2.201 2.998-2.687 1.099-0.484 2.224-0.636 3.375-0.455 1.147 0.186 2.218 0.618 3.213 1.296v0c0.904 0.616 1.7 1.403 2.389 2.359 0.686 0.948 1.185 2.007 1.495 3.179 0.314 1.166 0.378 2.372 0.191 3.618-0.185 1.256-0.692 2.491-1.519 3.705zM220.761 189.177v0c0.32-0.469 0.342-1.024 0.068-1.667-0.276-0.651-0.739-1.314-1.388-1.988-0.653-0.669-1.37-1.268-2.149-1.8v0c-0.695-0.474-1.398-0.857-2.108-1.151-0.704-0.29-1.34-0.437-1.907-0.443-0.573-0.01-1.001 0.195-1.287 0.613v0c-0.308 0.452-0.326 1.007-0.054 1.664 0.266 0.653 0.719 1.313 1.357 1.979 0.644 0.67 1.364 1.277 2.161 1.82v0c0.701 0.477 1.405 0.858 2.114 1.142 0.704 0.29 1.34 0.437 1.907 0.443 0.573 0.01 1.001-0.195 1.286-0.612z" fill="#000000" data-fill-palette-color="accent"></path><path d="M236.525 163.97v0c-0.243 0.719-0.754 1.257-1.532 1.615-0.774 0.366-1.701 0.367-2.783 0.001v0c-0.518-0.175-1.084-0.435-1.696-0.78-0.621-0.34-1.248-0.707-1.88-1.101-0.638-0.396-1.239-0.755-1.802-1.075-0.567-0.329-1.052-0.561-1.453-0.697v0c-0.421-0.142-0.781-0.177-1.08-0.105-0.303 0.064-0.495 0.215-0.576 0.455v0c-0.127 0.376 0.001 0.852 0.383 1.429v0l-0.175 0.135c-0.324-0.088-0.68-0.284-1.068-0.588-0.386-0.311-0.726-0.704-1.02-1.179-0.292-0.481-0.489-1.031-0.59-1.65-0.099-0.625-0.027-1.298 0.217-2.017v0c0.357-1.056 0.921-1.72 1.692-1.993 0.771-0.273 1.584-0.266 2.439 0.023v0c0.143 0.048 0.286 0.104 0.43 0.167 0.147 0.057 0.285 0.118 0.415 0.184v0c-1.052-1.157-1.789-2.244-2.211-3.26-0.419-1.022-0.514-1.874-0.285-2.554v0c0.215-0.635 0.622-1.017 1.222-1.146 0.602-0.136 1.252-0.085 1.952 0.151v0c0.635 0.215 1.24 0.56 1.815 1.036 0.571 0.467 0.99 1.021 1.258 1.66 0.263 0.63 0.267 1.292 0.01 1.985v0l-0.097 0.097c-0.533-0.151-1.003-0.119-1.408 0.098-0.405 0.217-0.676 0.526-0.812 0.927v0c-0.182 0.538-0.083 1.131 0.297 1.779 0.378 0.655 1.075 1.154 2.092 1.498v0c0.622 0.21 1.316 0.366 2.084 0.466 0.767 0.101 1.4 0.235 1.899 0.404v0c0.596 0.202 1.095 0.529 1.497 0.982 0.405 0.447 0.679 0.937 0.824 1.47 0.136 0.537 0.117 1.064-0.058 1.583z" fill="#000000" data-fill-palette-color="accent"></path><path d="M0 122.142c0-4.851 3.933-8.784 8.784-8.784 4.851 0 8.784 3.933 8.785 8.784 0 4.851-3.933 8.784-8.785 8.784-4.851 0-8.784-3.933-8.784-8.784z" fill="#000000" data-fill-palette-color="accent"></path><path d="M226.863 122.142c0-4.851 3.933-8.784 8.784-8.784 4.851 0 8.784 3.933 8.784 8.784 0 4.851-3.933 8.784-8.784 8.784-4.851 0-8.784-3.933-8.784-8.784z" fill="#000000" data-fill-palette-color="accent"></path></g><g id="text-1"></g></svg></g></svg></g><g></g></svg></g><defs></defs></svg><rect width="275.2052120689373" height="247.2" fill="none" stroke="none" visibility="hidden"></rect></g></svg></g></svg>